<svg width="181" height="111" viewBox="0 0 181 111" fill="none" xmlns="http://www.w3.org/2000/svg">
<path d="M167.063 45.1165C161.467 46.6566 156.762 48.0797 151.996 49.2296C143.923 51.2129 135.861 52.8123 127.44 51.2671C118.898 49.691 113.13 44.8233 111.016 36.5873C109.726 31.5283 109.812 26.1323 109.473 20.8858C109.351 18.8337 109.806 16.7137 110.073 13.6428C106.703 16.7395 104.094 19.2133 101.385 21.5755C94.7891 27.3756 88.4243 33.4496 81.4769 38.7731C71.9936 46.116 62.7944 44.5873 55.7461 34.7921C52.985 30.9491 51.1368 26.3928 48.9133 22.1279C48.2523 20.8414 47.7838 19.4749 47.1141 17.8851C43.2897 25.295 39.7599 32.3929 35.9783 39.2976C27.1411 55.4052 13.4873 51.2787 5.60143 41.2269C3.49182 38.539 2.00135 35.2779 0.520362 32.1483C-0.3994 30.0218 -0.0952077 27.6483 2.26407 26.6589C4.39059 25.7392 6.00075 27.1817 7.16437 29.0264C8.33829 30.8308 9.40057 32.7356 10.7471 34.369C12.3248 36.2763 13.9428 38.1938 15.8657 39.7591C21.282 44.1502 25.7708 43.7468 29.8801 38.0866C32.789 34.0984 35.124 29.6628 37.4788 25.3182C39.6705 21.2761 41.6809 17.1017 43.6913 12.9274C44.7523 10.7899 45.8941 8.67307 48.5526 8.53395C51.6053 8.36635 52.7966 10.7771 53.9079 12.9955C55.3398 15.8116 56.3363 18.8177 57.9203 21.5435C59.8746 25.0089 61.9201 28.4544 64.3614 31.5279C67.6869 35.6869 70.7158 36.2872 75.2864 33.5396C79.6543 30.9124 83.9731 27.9717 87.8692 24.6651C96.1792 17.5391 104.207 10.1692 112.246 2.75893C114.154 1.00947 116.019 -0.0631001 118.439 1.06998C120.748 2.13181 121.01 4.30577 120.767 6.60875C120.324 10.7096 119.698 14.85 119.466 18.962C119.278 22.5689 119.149 26.2771 119.617 29.8365C120.846 39.3518 125.476 43.4562 135.002 44.2083C142.164 44.7875 149.212 43.9616 156.142 42.2458C161.14 41.0262 166.049 39.4828 170.967 38.0708C173.567 37.315 176.259 36.5394 178.258 39.156C180.116 41.6507 179.033 44.2125 177.849 46.6627C177.329 47.691 176.657 48.6378 176.026 49.5949C174.724 51.4988 173.522 53.5143 172.038 55.286C161.092 68.5339 162.898 82.1952 170.797 95.9053C172.26 98.4285 174.524 100.511 176.495 102.733C177.46 103.839 178.79 104.694 179.603 105.891C180.205 106.732 180.723 108.24 180.326 108.956C179.908 109.753 178.41 110.231 177.459 110.418C175.386 110.792 172.944 109.912 171.353 108.732C168.211 106.383 165.101 103.741 162.801 100.618C157.68 93.7216 154.948 85.7152 153.634 77.2101C152.516 69.959 154.578 63.3898 158.396 57.3544C160.94 53.4452 163.767 49.78 167.063 45.1165Z" fill="black"/>
</svg>
