<svg width="275" height="84" viewBox="0 0 275 84" fill="none" xmlns="http://www.w3.org/2000/svg">
<path d="M54.5867 35.455V40.9103V43.0908V48.546H59.1831V43.0908V40.9103V35.455H54.5867Z" fill="#FAB908"/>
<path d="M40.7981 43.0226C42.0674 43.0226 43.0963 42.0152 43.0963 40.7726C43.0963 39.5299 42.0674 38.5226 40.7981 38.5226C39.5289 38.5226 38.5 39.5299 38.5 40.7726C38.5 42.0152 39.5289 43.0226 40.7981 43.0226Z" fill="#0066D9"/>
<path d="M40.7981 45.4774C42.0674 45.4774 43.0963 44.47 43.0963 43.2274C43.0963 41.9847 42.0674 40.9774 40.7981 40.9774C39.5289 40.9774 38.5 41.9847 38.5 43.2274C38.5 44.47 39.5289 45.4774 40.7981 45.4774Z" fill="#0066D9"/>
<path d="M43.0963 40.7729H38.5V43.2275H43.0963V40.7729Z" fill="#0066D9"/>
<path d="M72.9718 45.4774C74.2411 45.4774 75.2699 44.47 75.2699 43.2274C75.2699 41.9847 74.2411 40.9774 72.9718 40.9774C71.7026 40.9774 70.6736 41.9847 70.6736 43.2274C70.6736 44.47 71.7026 45.4774 72.9718 45.4774Z" fill="#4285F4"/>
<path d="M72.9718 43.0226C74.2411 43.0226 75.2699 42.0152 75.2699 40.7726C75.2699 39.5299 74.2411 38.5226 72.9718 38.5226C71.7026 38.5226 70.6736 39.5299 70.6736 40.7726C70.6736 42.0152 71.7026 43.0226 72.9718 43.0226Z" fill="#4285F4"/>
<path d="M70.6736 43.2278H75.2699V40.7732H70.6736V43.2278Z" fill="#4285F4"/>
<path d="M48.7369 50.3867C50.0061 50.3867 51.035 49.3793 51.035 48.1367C51.035 46.894 50.0061 45.8867 48.7369 45.8867C47.4677 45.8867 46.4388 46.894 46.4388 48.1367C46.4388 49.3793 47.4677 50.3867 48.7369 50.3867Z" fill="#EA4335"/>
<path d="M48.7369 52.8414C50.0061 52.8414 51.035 51.8341 51.035 50.5914C51.035 49.3488 50.0061 48.3413 48.7369 48.3413C47.4677 48.3413 46.4388 49.3488 46.4388 50.5914C46.4388 51.8341 47.4677 52.8414 48.7369 52.8414Z" fill="#EA4335"/>
<path d="M51.035 48.137H46.4388V50.5916H51.035V48.137Z" fill="#EA4335"/>
<path d="M48.7369 35.6592C50.0061 35.6592 51.035 34.6518 51.035 33.4092C51.035 32.1665 50.0061 31.1592 48.7369 31.1592C47.4677 31.1592 46.4388 32.1665 46.4388 33.4092C46.4388 34.6518 47.4677 35.6592 48.7369 35.6592Z" fill="#EA4335"/>
<path d="M48.7369 43.6362C50.0061 43.6362 51.035 42.6288 51.035 41.3862C51.035 40.1435 50.0061 39.1362 48.7369 39.1362C47.4677 39.1362 46.4388 40.1435 46.4388 41.3862C46.4388 42.6288 47.4677 43.6362 48.7369 43.6362Z" fill="#EA4335"/>
<path d="M51.035 33.4089H46.4388V41.4374H51.035V33.4089Z" fill="#EA4335"/>
<path d="M65.033 38.114C66.3022 38.114 67.3311 37.1066 67.3311 35.864C67.3311 34.6213 66.3022 33.614 65.033 33.614C63.7638 33.614 62.7349 34.6213 62.7349 35.864C62.7349 37.1066 63.7638 38.114 65.033 38.114Z" fill="#34A853"/>
<path d="M65.033 35.6592C66.3022 35.6592 67.3311 34.6518 67.3311 33.4092C67.3311 32.1665 66.3022 31.1592 65.033 31.1592C63.7638 31.1592 62.7349 32.1665 62.7349 33.4092C62.7349 34.6518 63.7638 35.6592 65.033 35.6592Z" fill="#34A853"/>
<path d="M62.7346 35.8636H67.331V33.4091H62.7346V35.8636Z" fill="#34A853"/>
<path d="M56.8849 30.9548C58.1541 30.9548 59.1831 29.9474 59.1831 28.7048C59.1831 27.4621 58.1541 26.4548 56.8849 26.4548C55.6157 26.4548 54.5867 27.4621 54.5867 28.7048C54.5867 29.9474 55.6157 30.9548 56.8849 30.9548Z" fill="#FAB908"/>
<path d="M56.8849 28.5C58.1541 28.5 59.1831 27.4927 59.1831 26.25C59.1831 25.0074 58.1541 24 56.8849 24C55.6157 24 54.5867 25.0074 54.5867 26.25C54.5867 27.4927 55.6157 28.5 56.8849 28.5Z" fill="#FAB908"/>
<path d="M54.587 28.7046H59.1833V26.25H54.587V28.7046Z" fill="#FAB908"/>
<path d="M56.8849 60C58.1541 60 59.1831 58.9927 59.1831 57.75C59.1831 56.5074 58.1541 55.5 56.8849 55.5C55.6157 55.5 54.5867 56.5074 54.5867 57.75C54.5867 58.9927 55.6157 60 56.8849 60Z" fill="#FAB908"/>
<path d="M56.8849 57.5459C58.1541 57.5459 59.1831 56.5385 59.1831 55.2958C59.1831 54.0532 58.1541 53.0458 56.8849 53.0458C55.6157 53.0458 54.5867 54.0532 54.5867 55.2958C54.5867 56.5385 55.6157 57.5459 56.8849 57.5459Z" fill="#FAB908"/>
<path d="M54.587 57.7503H59.1833V55.2957H54.587V57.7503Z" fill="#FAB908"/>
<path d="M65.033 52.8414C66.3022 52.8414 67.3311 51.8341 67.3311 50.5914C67.3311 49.3488 66.3022 48.3413 65.033 48.3413C63.7638 48.3413 62.7349 49.3488 62.7349 50.5914C62.7349 51.8341 63.7638 52.8414 65.033 52.8414Z" fill="#34A853"/>
<path d="M65.033 44.8638C66.3022 44.8638 67.3311 43.8565 67.3311 42.6138C67.3311 41.3712 66.3022 40.3638 65.033 40.3638C63.7638 40.3638 62.7349 41.3712 62.7349 42.6138C62.7349 43.8565 63.7638 44.8638 65.033 44.8638Z" fill="#34A853"/>
<path d="M62.7346 50.5912H67.331V42.6138H62.7346V50.5912Z" fill="#34A853"/>
<path d="M56.8849 37.7047C58.1541 37.7047 59.1831 36.6973 59.1831 35.4547C59.1831 34.2121 58.1541 33.2047 56.8849 33.2047C55.6157 33.2047 54.5867 34.2121 54.5867 35.4547C54.5867 36.6973 55.6157 37.7047 56.8849 37.7047Z" fill="#FAB908"/>
<path d="M56.8849 50.7959C58.1541 50.7959 59.1831 49.7885 59.1831 48.5458C59.1831 47.3032 58.1541 46.2958 56.8849 46.2958C55.6157 46.2958 54.5867 47.3032 54.5867 48.5458C54.5867 49.7885 55.6157 50.7959 56.8849 50.7959Z" fill="#FAB908"/>
<path fill-rule="evenodd" clip-rule="evenodd" d="M159.897 47.6467H157.983V33.0663H163.059C164.32 33.0663 165.412 33.477 166.334 34.2982C167.256 35.1196 167.717 36.1547 167.717 37.4037C167.717 38.6527 167.256 39.6879 166.334 40.5092C165.412 41.3306 164.32 41.7413 163.059 41.7413H159.897V47.6467ZM159.897 39.9493H163.1C163.904 39.9493 164.549 39.6845 165.034 39.1551C165.519 38.6256 165.763 38.0418 165.763 37.4037C165.763 36.7657 165.519 36.1819 165.034 35.6525C164.549 35.123 163.904 34.8583 163.1 34.8583H159.897V39.9493ZM169.304 38.87C170.288 37.8517 171.543 37.3426 173.069 37.3426C174.594 37.3426 175.849 37.8483 176.833 38.8598C177.818 39.8712 178.31 41.1371 178.31 42.6576C178.31 44.1781 177.818 45.444 176.833 46.4555C175.849 47.4669 174.594 47.9725 173.069 47.9725C171.543 47.9725 170.288 47.4669 169.304 46.4555C168.32 45.444 167.828 44.1781 167.828 42.6576C167.828 41.1371 168.32 39.8746 169.304 38.87ZM170.718 45.2845C171.384 45.9362 172.168 46.262 173.069 46.262C173.97 46.262 174.75 45.9328 175.409 45.2743C176.067 44.6159 176.396 43.7437 176.396 42.6576C176.396 41.5715 176.067 40.6993 175.409 40.0408C174.75 39.3824 173.97 39.0532 173.069 39.0532C172.168 39.0532 171.387 39.3824 170.728 40.0408C170.07 40.6993 169.741 41.5715 169.741 42.6576C169.741 43.7437 170.066 44.6193 170.718 45.2845ZM184.077 47.9725C182.76 47.9725 181.623 47.4634 180.666 46.4452C179.71 45.4271 179.231 44.1645 179.231 42.6576C179.231 41.1507 179.71 39.8882 180.666 38.87C181.623 37.8517 182.76 37.3426 184.077 37.3426C184.854 37.3426 185.551 37.5056 186.167 37.8314C186.785 38.1572 187.246 38.5645 187.55 39.0532H187.634L187.55 37.6685V33.0663H189.465V47.6467H187.634V46.262H187.55C187.246 46.7507 186.785 47.158 186.167 47.4839C185.551 47.8096 184.854 47.9725 184.077 47.9725ZM184.39 46.262C185.291 46.262 186.057 45.9362 186.688 45.2845C187.318 44.6329 187.634 43.7573 187.634 42.6576C187.634 41.558 187.318 40.6823 186.688 40.0307C186.057 39.3791 185.291 39.0532 184.39 39.0532C183.502 39.0532 182.739 39.3824 182.101 40.0408C181.464 40.6993 181.144 41.5715 181.144 42.6576C181.144 43.7437 181.464 44.6159 182.101 45.2743C182.739 45.9328 183.502 46.262 184.39 46.262ZM196.105 47.9725C194.58 47.9725 193.325 47.4669 192.341 46.4555C191.356 45.444 190.864 44.1781 190.864 42.6576C190.864 41.1371 191.356 39.8712 192.341 38.8598C193.325 37.8483 194.58 37.3426 196.105 37.3426C197.242 37.3426 198.185 37.6141 198.934 38.1572C199.683 38.7003 200.23 39.3858 200.577 40.2139L198.83 40.9267C198.303 39.6777 197.354 39.0532 195.981 39.0532C195.135 39.0532 194.39 39.3927 193.745 40.0714C193.1 40.7502 192.778 41.6122 192.778 42.6576C192.778 43.7029 193.1 44.565 193.745 45.2438C194.39 45.9226 195.135 46.262 195.981 46.262C197.409 46.262 198.393 45.6375 198.934 44.3886L200.639 45.1012C200.293 45.9158 199.735 46.598 198.965 47.1478C198.195 47.6976 197.242 47.9725 196.105 47.9725ZM205.179 47.9725C204.098 47.9725 203.193 47.6671 202.465 47.0562C201.737 46.4452 201.373 45.6375 201.373 44.6329C201.373 43.5468 201.803 42.695 202.663 42.0773C203.523 41.4596 204.583 41.1507 205.845 41.1507C206.968 41.1507 207.89 41.3543 208.611 41.7616V41.4765C208.611 40.7434 208.355 40.1563 207.842 39.7151C207.329 39.2738 206.698 39.0532 205.95 39.0532C205.394 39.0532 204.892 39.1822 204.441 39.4402C203.991 39.6981 203.683 40.051 203.516 40.499L201.768 39.7659C202.004 39.1686 202.469 38.6154 203.162 38.1064C203.855 37.5972 204.77 37.3426 205.907 37.3426C207.211 37.3426 208.293 37.716 209.153 38.4627C210.012 39.2093 210.442 40.2614 210.442 41.6191V47.6467H208.611V46.262H208.528C207.765 47.4024 206.65 47.9725 205.179 47.9725ZM205.491 46.262C206.282 46.262 206.999 45.9735 207.644 45.3965C208.289 44.8196 208.611 44.1374 208.611 43.35C208.071 42.9156 207.259 42.6983 206.178 42.6983C205.248 42.6983 204.548 42.8951 204.077 43.2889C203.606 43.6826 203.37 44.1441 203.37 44.6736C203.37 45.1623 203.585 45.5493 204.015 45.8344C204.445 46.1195 204.937 46.262 205.491 46.262ZM216.043 47.9725C214.906 47.9725 213.966 47.701 213.225 47.158C212.482 46.615 211.938 45.9362 211.591 45.1216L213.297 44.4292C213.838 45.6782 214.76 46.3027 216.063 46.3027C216.66 46.3027 217.149 46.1737 217.529 45.9158C217.911 45.6579 218.102 45.3185 218.102 44.8977C218.102 44.2459 217.637 43.8048 216.708 43.574L214.649 43.0852C213.997 42.9223 213.38 42.6135 212.798 42.1587C212.216 41.7039 211.925 41.0896 211.925 40.3158C211.925 39.4333 212.323 38.7172 213.12 38.1674C213.918 37.6176 214.864 37.3426 215.96 37.3426C216.861 37.3426 217.665 37.5429 218.372 37.9434C219.079 38.3439 219.586 38.9175 219.891 39.6642L218.227 40.3361C217.852 39.4537 217.075 39.0125 215.897 39.0125C215.329 39.0125 214.85 39.1279 214.462 39.3586C214.073 39.5895 213.879 39.9017 213.879 40.2954C213.879 40.8656 214.33 41.2525 215.231 41.4562L217.249 41.9245C218.205 42.1417 218.913 42.515 219.371 43.0445C219.829 43.574 220.057 44.1713 220.057 44.8366C220.057 45.7325 219.683 46.4792 218.934 47.0765C218.185 47.6739 217.221 47.9725 216.043 47.9725ZM225.783 47.8096C224.715 47.8096 223.901 47.5314 223.339 46.9748C222.777 46.4181 222.496 45.6307 222.496 44.6126V39.3791H220.707V37.6685H222.496V34.6139H224.41V37.6685H226.906V39.3791H224.41V44.47C224.41 45.556 224.868 46.099 225.783 46.099C226.129 46.099 226.421 46.0448 226.656 45.9362L227.322 47.5449C226.906 47.7214 226.393 47.8096 225.783 47.8096ZM232.485 47.9725C231.348 47.9725 230.409 47.701 229.668 47.158C228.926 46.615 228.381 45.9362 228.035 45.1216L229.74 44.4292C230.281 45.6782 231.203 46.3027 232.506 46.3027C233.103 46.3027 233.591 46.1737 233.973 45.9158C234.355 45.6579 234.544 45.3185 234.544 44.8977C234.544 44.2459 234.08 43.8048 233.151 43.574L231.092 43.0852C230.44 42.9223 229.824 42.6135 229.241 42.1587C228.659 41.7039 228.367 41.0896 228.367 40.3158C228.367 39.4333 228.766 38.7172 229.563 38.1674C230.361 37.6176 231.307 37.3426 232.403 37.3426C233.304 37.3426 234.108 37.5429 234.816 37.9434C235.523 38.3439 236.029 38.9175 236.333 39.6642L234.67 40.3361C234.295 39.4537 233.519 39.0125 232.34 39.0125C231.771 39.0125 231.293 39.1279 230.905 39.3586C230.517 39.5895 230.323 39.9017 230.323 40.2954C230.323 40.8656 230.773 41.2525 231.675 41.4562L233.692 41.9245C234.649 42.1417 235.356 42.515 235.814 43.0445C236.271 43.574 236.5 44.1713 236.5 44.8366C236.5 45.7325 236.125 46.4792 235.377 47.0765C234.628 47.6739 233.665 47.9725 232.485 47.9725Z" fill="#14142B"/>
<path d="M85.3141 39.6136C85.3141 35 89.2628 31.2613 93.9751 31.2613C96.575 31.2613 98.4275 32.2636 99.8249 33.5681L98.1674 35.175C97.1763 34.2522 95.8275 33.5363 93.9751 33.5363C90.5465 33.5363 87.8654 36.2408 87.8654 39.5977C87.8654 42.9546 90.5465 45.6591 93.9751 45.6591C96.2013 45.6591 97.4688 44.7841 98.2812 43.9886C98.9475 43.3364 99.3862 42.3978 99.5486 41.125H93.9751V38.8499H101.824C101.905 39.2636 101.954 39.7408 101.954 40.2818C101.954 42 101.482 44.1159 99.9387 45.6114C98.4275 47.1386 96.51 47.95 93.9751 47.95C89.2628 47.95 85.3141 44.2114 85.3141 39.6136ZM108.21 37.3068C111.248 37.3068 113.718 39.5659 113.718 42.684C113.718 45.7864 111.248 48.0614 108.21 48.0614C105.171 48.0614 102.701 45.7864 102.701 42.684C102.701 39.5659 105.171 37.3068 108.21 37.3068ZM108.21 45.9295C109.867 45.9295 111.313 44.5932 111.313 42.6682C111.313 40.7273 109.867 39.4068 108.21 39.4068C106.536 39.4068 105.106 40.7273 105.106 42.6682C105.106 44.5932 106.552 45.9295 108.21 45.9295ZM120.234 37.3068C123.273 37.3068 125.743 39.5659 125.743 42.684C125.743 45.7864 123.273 48.0614 120.234 48.0614C117.196 48.0614 114.726 45.7864 114.726 42.684C114.726 39.5659 117.196 37.3068 120.234 37.3068ZM120.234 45.9295C121.892 45.9295 123.338 44.5932 123.338 42.6682C123.338 40.7273 121.908 39.4068 120.234 39.4068C118.56 39.4068 117.131 40.7273 117.131 42.6682C117.131 44.5932 118.577 45.9295 120.234 45.9295ZM134.989 37.4818H137.296V47.1386C137.296 51.116 134.907 52.7387 132.08 52.7387C129.415 52.7387 127.806 50.9887 127.205 49.5569L129.301 48.6977C129.675 49.5728 130.585 50.6069 132.064 50.6069C133.867 50.6069 134.989 49.5092 134.989 47.4569V46.6773H134.907C134.371 47.3296 133.331 47.9023 132.015 47.9023C129.269 47.9023 126.75 45.5477 126.75 42.5409C126.75 39.5023 129.269 37.1477 132.015 37.1477C133.331 37.1477 134.371 37.7204 134.907 38.3568H134.989V37.4818ZM132.226 45.7864C133.867 45.7864 135.167 44.4341 135.151 42.5409C135.151 40.6477 133.867 39.2636 132.226 39.2636C130.569 39.2636 129.171 40.6477 129.171 42.5409C129.171 44.4182 130.569 45.7864 132.226 45.7864ZM138.937 47.6954V31.8977H141.342V47.6954H138.937ZM147.956 45.9295C149.191 45.9295 150.035 45.3409 150.669 44.45L152.538 45.675C151.921 46.55 150.474 48.0614 147.956 48.0614C144.835 48.0614 142.512 45.6909 142.512 42.684C142.512 39.4863 144.868 37.3068 147.696 37.3068C150.539 37.3068 151.937 39.5181 152.392 40.7273L152.636 41.3318L145.29 44.3068C145.86 45.3727 146.721 45.9295 147.956 45.9295ZM147.777 39.375C146.542 39.375 144.835 40.4409 144.901 42.5091L149.808 40.5204C149.548 39.8364 148.736 39.375 147.777 39.375Z" fill="#14142B"/>
</svg>
