<svg xmlns="http://www.w3.org/2000/svg" width="141" height="22" fill="none" viewBox="0 0 141 22"><g clip-path="url(#clip0_301_466)"><path fill="#FAB908" d="M7 8.09111V10.5157V11.4848V13.9093H9.00004V11.4848V10.5157V8.09111H7Z"/><path fill="#0066D9" d="M1.00001 11.4546C1.5523 11.4546 2.00002 11.0068 2.00002 10.4545C2.00002 9.90226 1.5523 9.45454 1.00001 9.45454C0.44772 9.45454 0 9.90226 0 10.4545C0 11.0068 0.44772 11.4546 1.00001 11.4546Z"/><path fill="#0066D9" d="M1.00001 12.5456C1.5523 12.5456 2.00002 12.0978 2.00002 11.5456C2.00002 10.9933 1.5523 10.5455 1.00001 10.5455C0.44772 10.5455 0 10.9933 0 11.5456C0 12.0978 0.44772 12.5456 1.00001 12.5456Z"/><path fill="#0066D9" d="M2.00002 10.4547H0V11.5456H2.00002V10.4547Z"/><path fill="#4285F4" d="M15 12.5456C15.5523 12.5456 16 12.0978 16 11.5456C16 10.9933 15.5523 10.5455 15 10.5455C14.4477 10.5455 14 10.9933 14 11.5456C14 12.0978 14.4477 12.5456 15 12.5456Z"/><path fill="#4285F4" d="M15 11.4546C15.5523 11.4546 16 11.0068 16 10.4545C16 9.90226 15.5523 9.45454 15 9.45454C14.4477 9.45454 14 9.90226 14 10.4545C14 11.0068 14.4477 11.4546 15 11.4546Z"/><path fill="#4285F4" d="M14 11.5456H16V10.4547H14V11.5456Z"/><path fill="#EA4335" d="M4.45435 14.7274C5.00662 14.7274 5.45435 14.2797 5.45435 13.7274C5.45435 13.1751 5.00662 12.7274 4.45435 12.7274C3.90206 12.7274 3.45435 13.1751 3.45435 13.7274C3.45435 14.2797 3.90206 14.7274 4.45435 14.7274Z"/><path fill="#EA4335" d="M4.45435 15.8184C5.00662 15.8184 5.45435 15.3707 5.45435 14.8184C5.45435 14.2661 5.00662 13.8184 4.45435 13.8184C3.90206 13.8184 3.45435 14.2661 3.45435 14.8184C3.45435 15.3707 3.90206 15.8184 4.45435 15.8184Z"/><path fill="#EA4335" d="M5.45435 13.7275H3.45435V14.8184H5.45435V13.7275Z"/><path fill="#EA4335" d="M4.45435 8.18185C5.00662 8.18185 5.45435 7.73413 5.45435 7.18186C5.45435 6.62957 5.00662 6.18185 4.45435 6.18185C3.90206 6.18185 3.45435 6.62957 3.45435 7.18186C3.45435 7.73413 3.90206 8.18185 4.45435 8.18185Z"/><path fill="#EA4335" d="M4.45435 11.7272C5.00662 11.7272 5.45435 11.2795 5.45435 10.7272C5.45435 10.1749 5.00662 9.72719 4.45435 9.72719C3.90206 9.72719 3.45435 10.1749 3.45435 10.7272C3.45435 11.2795 3.90206 11.7272 4.45435 11.7272Z"/><path fill="#EA4335" d="M5.45435 7.18169H3.45435V10.7499H5.45435V7.18169Z"/><path fill="#34A853" d="M11.5457 9.27287C12.0979 9.27287 12.5457 8.82516 12.5457 8.27287C12.5457 7.72058 12.0979 7.27286 11.5457 7.27286C10.9934 7.27286 10.5457 7.72058 10.5457 8.27287C10.5457 8.82516 10.9934 9.27287 11.5457 9.27287Z"/><path fill="#34A853" d="M11.5457 8.18185C12.0979 8.18185 12.5457 7.73413 12.5457 7.18186C12.5457 6.62957 12.0979 6.18185 11.5457 6.18185C10.9934 6.18185 10.5457 6.62957 10.5457 7.18186C10.5457 7.73413 10.9934 8.18185 11.5457 8.18185Z"/><path fill="#34A853" d="M10.5454 8.2727H12.5455V7.18179H10.5454V8.2727Z"/><path fill="#FAB908" d="M8 6.09101C8.55232 6.09101 9.00004 5.6433 9.00004 5.09101C9.00004 4.53872 8.55232 4.091 8 4.091C7.44773 4.091 7 4.53872 7 5.09101C7 5.6433 7.44773 6.09101 8 6.09101Z"/><path fill="#FAB908" d="M8 5.00001C8.55232 5.00001 9.00004 4.55229 9.00004 4C9.00004 3.44772 8.55232 3 8 3C7.44773 3 7 3.44772 7 4C7 4.55229 7.44773 5.00001 8 5.00001Z"/><path fill="#FAB908" d="M7 5.09086H9.00004V3.99994H7V5.09086Z"/><path fill="#FAB908" d="M8 19C8.55232 19 9.00004 18.5523 9.00004 18C9.00004 17.4477 8.55232 17 8 17C7.44773 17 7 17.4477 7 18C7 18.5523 7.44773 19 8 19Z"/><path fill="#FAB908" d="M8 17.9093C8.55232 17.9093 9.00004 17.4616 9.00004 16.9093C9.00004 16.357 8.55232 15.9093 8 15.9093C7.44773 15.9093 7 16.357 7 16.9093C7 17.4616 7.44773 17.9093 8 17.9093Z"/><path fill="#FAB908" d="M7 18.0002H9.00004V16.9093H7V18.0002Z"/><path fill="#34A853" d="M11.5457 15.8184C12.0979 15.8184 12.5457 15.3707 12.5457 14.8184C12.5457 14.2661 12.0979 13.8184 11.5457 13.8184C10.9934 13.8184 10.5457 14.2661 10.5457 14.8184C10.5457 15.3707 10.9934 15.8184 11.5457 15.8184Z"/><path fill="#34A853" d="M11.5457 12.2728C12.0979 12.2728 12.5457 11.8251 12.5457 11.2728C12.5457 10.7205 12.0979 10.2728 11.5457 10.2728C10.9934 10.2728 10.5457 10.7205 10.5457 11.2728C10.5457 11.8251 10.9934 12.2728 11.5457 12.2728Z"/><path fill="#34A853" d="M10.5454 14.8183H12.5455V11.2728H10.5454V14.8183Z"/><path fill="#FAB908" d="M8 9.09099C8.55232 9.09099 9.00004 8.64323 9.00004 8.09098C9.00004 7.53869 8.55232 7.09096 8 7.09096C7.44773 7.09096 7 7.53869 7 8.09098C7 8.64323 7.44773 9.09099 8 9.09099Z"/><path fill="#FAB908" d="M8 14.9093C8.55232 14.9093 9.00004 14.4616 9.00004 13.9093C9.00004 13.357 8.55232 12.9093 8 12.9093C7.44773 12.9093 7 13.357 7 13.9093C7 14.4616 7.44773 14.9093 8 14.9093Z"/></g><path fill="#000" d="M31.784 10.946H33.856V16H32.148V15.412C31.4667 15.916 30.5893 16.168 29.516 16.168C28.6107 16.168 27.78 15.972 27.024 15.58C26.268 15.188 25.666 14.6187 25.218 13.872C24.77 13.116 24.546 12.22 24.546 11.184C24.546 10.1853 24.7747 9.29867 25.232 8.524C25.6987 7.74 26.3427 7.12867 27.164 6.69C27.9853 6.25133 28.9093 6.032 29.936 6.032C30.7947 6.032 31.574 6.17667 32.274 6.466C32.974 6.75533 33.562 7.17533 34.038 7.726L32.582 9.07C31.882 8.33267 31.0373 7.964 30.048 7.964C29.4227 7.964 28.8673 8.09933 28.382 8.37C27.8967 8.63133 27.5187 9.00467 27.248 9.49C26.9773 9.97533 26.842 10.5353 26.842 11.17C26.842 11.8327 26.9727 12.3973 27.234 12.864C27.5047 13.3307 27.864 13.6853 28.312 13.928C28.76 14.1613 29.25 14.278 29.782 14.278C30.5753 14.278 31.2427 14.054 31.784 13.606V10.946ZM39.3928 16.112C38.5994 16.112 37.8854 15.9487 37.2508 15.622C36.6254 15.286 36.1354 14.824 35.7808 14.236C35.4261 13.648 35.2488 12.9807 35.2488 12.234C35.2488 11.4873 35.4261 10.82 35.7808 10.232C36.1354 9.644 36.6254 9.18667 37.2508 8.86C37.8854 8.524 38.5994 8.356 39.3928 8.356C40.1861 8.356 40.8954 8.524 41.5208 8.86C42.1461 9.18667 42.6361 9.644 42.9908 10.232C43.3454 10.82 43.5228 11.4873 43.5228 12.234C43.5228 12.9807 43.3454 13.648 42.9908 14.236C42.6361 14.824 42.1461 15.286 41.5208 15.622C40.8954 15.9487 40.1861 16.112 39.3928 16.112ZM39.3928 14.32C39.9528 14.32 40.4101 14.1333 40.7648 13.76C41.1288 13.3773 41.3108 12.8687 41.3108 12.234C41.3108 11.5993 41.1288 11.0953 40.7648 10.722C40.4101 10.3393 39.9528 10.148 39.3928 10.148C38.8328 10.148 38.3708 10.3393 38.0068 10.722C37.6428 11.0953 37.4608 11.5993 37.4608 12.234C37.4608 12.8687 37.6428 13.3773 38.0068 13.76C38.3708 14.1333 38.8328 14.32 39.3928 14.32ZM48.5666 16.112C47.7733 16.112 47.0593 15.9487 46.4246 15.622C45.7993 15.286 45.3093 14.824 44.9546 14.236C44.5999 13.648 44.4226 12.9807 44.4226 12.234C44.4226 11.4873 44.5999 10.82 44.9546 10.232C45.3093 9.644 45.7993 9.18667 46.4246 8.86C47.0593 8.524 47.7733 8.356 48.5666 8.356C49.3599 8.356 50.0693 8.524 50.6946 8.86C51.3199 9.18667 51.8099 9.644 52.1646 10.232C52.5193 10.82 52.6966 11.4873 52.6966 12.234C52.6966 12.9807 52.5193 13.648 52.1646 14.236C51.8099 14.824 51.3199 15.286 50.6946 15.622C50.0693 15.9487 49.3599 16.112 48.5666 16.112ZM48.5666 14.32C49.1266 14.32 49.5839 14.1333 49.9386 13.76C50.3026 13.3773 50.4846 12.8687 50.4846 12.234C50.4846 11.5993 50.3026 11.0953 49.9386 10.722C49.5839 10.3393 49.1266 10.148 48.5666 10.148C48.0066 10.148 47.5446 10.3393 47.1806 10.722C46.8166 11.0953 46.6346 11.5993 46.6346 12.234C46.6346 12.8687 46.8166 13.3773 47.1806 13.76C47.5446 14.1333 48.0066 14.32 48.5666 14.32ZM61.9264 8.468V14.74C61.9264 16.1213 61.5671 17.148 60.8484 17.82C60.1298 18.492 59.0798 18.828 57.6984 18.828C56.9704 18.828 56.2798 18.7393 55.6264 18.562C54.9731 18.3847 54.4318 18.128 54.0024 17.792L54.8704 16.224C55.1878 16.4853 55.5891 16.6907 56.0744 16.84C56.5598 16.9987 57.0451 17.078 57.5304 17.078C58.2864 17.078 58.8418 16.9053 59.1964 16.56C59.5604 16.224 59.7424 15.7107 59.7424 15.02V14.698C59.1731 15.3233 58.3798 15.636 57.3624 15.636C56.6718 15.636 56.0371 15.4867 55.4584 15.188C54.8891 14.88 54.4364 14.4507 54.1004 13.9C53.7644 13.3493 53.5964 12.7147 53.5964 11.996C53.5964 11.2773 53.7644 10.6427 54.1004 10.092C54.4364 9.54133 54.8891 9.11667 55.4584 8.818C56.0371 8.51 56.6718 8.356 57.3624 8.356C58.4544 8.356 59.2851 8.71533 59.8544 9.434V8.468H61.9264ZM57.7964 13.844C58.3751 13.844 58.8464 13.676 59.2104 13.34C59.5838 12.9947 59.7704 12.5467 59.7704 11.996C59.7704 11.4453 59.5838 11.002 59.2104 10.666C58.8464 10.3207 58.3751 10.148 57.7964 10.148C57.2178 10.148 56.7418 10.3207 56.3684 10.666C55.9951 11.002 55.8084 11.4453 55.8084 11.996C55.8084 12.5467 55.9951 12.9947 56.3684 13.34C56.7418 13.676 57.2178 13.844 57.7964 13.844ZM66.6612 16.112C65.8118 16.112 65.1492 15.888 64.6732 15.44C64.1972 14.9827 63.9592 14.3387 63.9592 13.508V5.612H66.1432V13.382C66.1432 13.6993 66.2225 13.9467 66.3812 14.124C66.5492 14.292 66.7825 14.376 67.0812 14.376C67.1932 14.376 67.3052 14.362 67.4172 14.334C67.5385 14.306 67.6318 14.2733 67.6972 14.236L67.7952 15.93C67.4312 16.0513 67.0532 16.112 66.6612 16.112ZM72.5247 14.362C72.9167 14.362 73.262 14.306 73.5607 14.194C73.8687 14.0727 74.1533 13.886 74.4147 13.634L75.5767 14.894C74.8673 15.706 73.8313 16.112 72.4687 16.112C71.6193 16.112 70.868 15.9487 70.2147 15.622C69.5613 15.286 69.0573 14.824 68.7027 14.236C68.348 13.648 68.1707 12.9807 68.1707 12.234C68.1707 11.4967 68.3433 10.834 68.6887 10.246C69.0433 9.64867 69.524 9.18667 70.1307 8.86C70.7467 8.524 71.4373 8.356 72.2027 8.356C72.9213 8.356 73.5747 8.51 74.1627 8.818C74.7507 9.11667 75.2173 9.55533 75.5627 10.134C75.9173 10.7033 76.0947 11.38 76.0947 12.164L70.5227 13.242C70.6813 13.6153 70.9287 13.8953 71.2647 14.082C71.61 14.2687 72.03 14.362 72.5247 14.362ZM72.2027 10.008C71.652 10.008 71.204 10.1853 70.8587 10.54C70.5133 10.8947 70.3313 11.3847 70.3127 12.01L73.9807 11.296C73.878 10.904 73.668 10.5913 73.3507 10.358C73.0333 10.1247 72.6507 10.008 72.2027 10.008ZM85.9235 6.2C86.7915 6.2 87.5429 6.34467 88.1775 6.634C88.8215 6.92333 89.3162 7.334 89.6615 7.866C90.0069 8.398 90.1795 9.028 90.1795 9.756C90.1795 10.4747 90.0069 11.1047 89.6615 11.646C89.3162 12.178 88.8215 12.5887 88.1775 12.878C87.5429 13.158 86.7915 13.298 85.9235 13.298H83.9495V16H81.6815V6.2H85.9235ZM85.7975 11.45C86.4789 11.45 86.9969 11.3053 87.3515 11.016C87.7062 10.7173 87.8835 10.2973 87.8835 9.756C87.8835 9.20533 87.7062 8.78533 87.3515 8.496C86.9969 8.19733 86.4789 8.048 85.7975 8.048H83.9495V11.45H85.7975ZM95.215 16.112C94.4217 16.112 93.7077 15.9487 93.073 15.622C92.4477 15.286 91.9577 14.824 91.603 14.236C91.2484 13.648 91.071 12.9807 91.071 12.234C91.071 11.4873 91.2484 10.82 91.603 10.232C91.9577 9.644 92.4477 9.18667 93.073 8.86C93.7077 8.524 94.4217 8.356 95.215 8.356C96.0084 8.356 96.7177 8.524 97.343 8.86C97.9684 9.18667 98.4584 9.644 98.813 10.232C99.1677 10.82 99.345 11.4873 99.345 12.234C99.345 12.9807 99.1677 13.648 98.813 14.236C98.4584 14.824 97.9684 15.286 97.343 15.622C96.7177 15.9487 96.0084 16.112 95.215 16.112ZM95.215 14.32C95.775 14.32 96.2324 14.1333 96.587 13.76C96.951 13.3773 97.133 12.8687 97.133 12.234C97.133 11.5993 96.951 11.0953 96.587 10.722C96.2324 10.3393 95.775 10.148 95.215 10.148C94.655 10.148 94.193 10.3393 93.829 10.722C93.465 11.0953 93.283 11.5993 93.283 12.234C93.283 12.8687 93.465 13.3773 93.829 13.76C94.193 14.1333 94.655 14.32 95.215 14.32ZM108.477 5.612V16H106.391V15.132C105.85 15.7853 105.066 16.112 104.039 16.112C103.33 16.112 102.686 15.9533 102.107 15.636C101.538 15.3187 101.09 14.866 100.763 14.278C100.436 13.69 100.273 13.0087 100.273 12.234C100.273 11.4593 100.436 10.778 100.763 10.19C101.09 9.602 101.538 9.14933 102.107 8.832C102.686 8.51467 103.33 8.356 104.039 8.356C105 8.356 105.752 8.65933 106.293 9.266V5.612H108.477ZM104.417 14.32C104.968 14.32 105.425 14.1333 105.789 13.76C106.153 13.3773 106.335 12.8687 106.335 12.234C106.335 11.5993 106.153 11.0953 105.789 10.722C105.425 10.3393 104.968 10.148 104.417 10.148C103.857 10.148 103.395 10.3393 103.031 10.722C102.667 11.0953 102.485 11.5993 102.485 12.234C102.485 12.8687 102.667 13.3773 103.031 13.76C103.395 14.1333 103.857 14.32 104.417 14.32ZM114.138 16.112C113.336 16.112 112.612 15.9487 111.968 15.622C111.334 15.286 110.834 14.824 110.47 14.236C110.116 13.648 109.938 12.9807 109.938 12.234C109.938 11.4873 110.116 10.82 110.47 10.232C110.834 9.644 111.334 9.18667 111.968 8.86C112.612 8.524 113.336 8.356 114.138 8.356C114.932 8.356 115.622 8.524 116.21 8.86C116.808 9.18667 117.242 9.658 117.512 10.274L115.818 11.184C115.426 10.4933 114.862 10.148 114.124 10.148C113.555 10.148 113.084 10.3347 112.71 10.708C112.337 11.0813 112.15 11.59 112.15 12.234C112.15 12.878 112.337 13.3867 112.71 13.76C113.084 14.1333 113.555 14.32 114.124 14.32C114.871 14.32 115.436 13.9747 115.818 13.284L117.512 14.208C117.242 14.8053 116.808 15.272 116.21 15.608C115.622 15.944 114.932 16.112 114.138 16.112ZM126.318 8.468V16H124.232V15.132C123.691 15.7853 122.907 16.112 121.88 16.112C121.171 16.112 120.527 15.9533 119.948 15.636C119.379 15.3187 118.931 14.866 118.604 14.278C118.277 13.69 118.114 13.0087 118.114 12.234C118.114 11.4593 118.277 10.778 118.604 10.19C118.931 9.602 119.379 9.14933 119.948 8.832C120.527 8.51467 121.171 8.356 121.88 8.356C122.841 8.356 123.593 8.65933 124.134 9.266V8.468H126.318ZM122.258 14.32C122.809 14.32 123.266 14.1333 123.63 13.76C123.994 13.3773 124.176 12.8687 124.176 12.234C124.176 11.5993 123.994 11.0953 123.63 10.722C123.266 10.3393 122.809 10.148 122.258 10.148C121.698 10.148 121.236 10.3393 120.872 10.722C120.508 11.0953 120.326 11.5993 120.326 12.234C120.326 12.8687 120.508 13.3773 120.872 13.76C121.236 14.1333 121.698 14.32 122.258 14.32ZM130.874 16.112C130.249 16.112 129.637 16.0373 129.04 15.888C128.443 15.7293 127.967 15.5333 127.612 15.3L128.34 13.732C128.676 13.9467 129.082 14.124 129.558 14.264C130.034 14.3947 130.501 14.46 130.958 14.46C131.882 14.46 132.344 14.2313 132.344 13.774C132.344 13.5593 132.218 13.4053 131.966 13.312C131.714 13.2187 131.327 13.1393 130.804 13.074C130.188 12.9807 129.679 12.8733 129.278 12.752C128.877 12.6307 128.527 12.416 128.228 12.108C127.939 11.8 127.794 11.3613 127.794 10.792C127.794 10.316 127.929 9.896 128.2 9.532C128.48 9.15867 128.881 8.86933 129.404 8.664C129.936 8.45867 130.561 8.356 131.28 8.356C131.812 8.356 132.339 8.41667 132.862 8.538C133.394 8.65 133.833 8.80867 134.178 9.014L133.45 10.568C132.787 10.1947 132.064 10.008 131.28 10.008C130.813 10.008 130.463 10.0733 130.23 10.204C129.997 10.3347 129.88 10.5027 129.88 10.708C129.88 10.9413 130.006 11.1047 130.258 11.198C130.51 11.2913 130.911 11.38 131.462 11.464C132.078 11.5667 132.582 11.6787 132.974 11.8C133.366 11.912 133.707 12.122 133.996 12.43C134.285 12.738 134.43 13.1673 134.43 13.718C134.43 14.1847 134.29 14.6 134.01 14.964C133.73 15.328 133.319 15.6127 132.778 15.818C132.246 16.014 131.611 16.112 130.874 16.112ZM140.314 15.636C140.099 15.7947 139.833 15.916 139.516 16C139.208 16.0747 138.886 16.112 138.55 16.112C137.644 16.112 136.949 15.8833 136.464 15.426C135.978 14.9687 135.736 14.2967 135.736 13.41V6.802H137.92V8.636H139.782V10.316H137.92V13.382C137.92 13.6993 137.999 13.9467 138.158 14.124C138.316 14.292 138.545 14.376 138.844 14.376C139.18 14.376 139.478 14.2827 139.74 14.096L140.314 15.636Z"/><defs><clipPath id="clip0_301_466"><rect width="16" height="16" fill="#fff" transform="translate(0 3)"/></clipPath></defs></svg>