<svg width="275" height="84" viewBox="0 0 275 84" fill="none" xmlns="http://www.w3.org/2000/svg">
<path d="M90.7377 25C87.3283 25 83.9956 25.997 81.1609 27.865C78.3262 29.733 76.1169 32.3881 74.8121 35.4944C73.5075 38.6007 73.1661 42.0189 73.8313 45.3165C74.4963 48.6142 76.138 51.6433 78.5488 54.0208C80.9595 56.3983 84.031 58.0174 87.3748 58.6733C90.7185 59.3293 94.1844 58.9927 97.3341 57.7059C100.484 56.4192 103.176 54.2403 105.07 51.4447C106.964 48.6491 107.975 45.3623 107.975 42C107.975 37.4913 106.159 33.1673 102.926 29.9792C99.6937 26.791 95.3094 25 90.7377 25ZM98.6479 49.5164C98.5746 49.6365 98.4777 49.7411 98.3631 49.824C98.2484 49.9069 98.1181 49.9664 97.9798 49.9992C97.8417 50.0321 97.6982 50.0374 97.5578 50.0151C97.4174 49.9928 97.2829 49.9432 97.1622 49.8692C93.1176 47.427 88.0275 46.8843 82.0294 48.2275C81.8929 48.2596 81.7514 48.2647 81.6129 48.2423C81.4746 48.2201 81.3419 48.1709 81.2229 48.0978C81.1039 48.0246 81.0008 47.9288 80.9196 47.8159C80.8384 47.7031 80.7808 47.5755 80.75 47.4405C80.7172 47.3052 80.712 47.1647 80.7344 47.0272C80.7568 46.8898 80.8065 46.7581 80.8806 46.6396C80.9547 46.5211 81.0519 46.4183 81.1663 46.3369C81.2808 46.2555 81.4105 46.1971 81.5479 46.1652C88.11 44.6863 93.7504 45.324 98.2903 48.0647C98.5325 48.2107 98.7062 48.4455 98.7732 48.7176C98.8403 48.9897 98.7952 49.277 98.6479 49.5164ZM100.753 44.8898C100.561 45.1815 100.262 45.3891 99.919 45.4699C99.5759 45.5508 99.2145 45.4985 98.9093 45.324C93.6786 42.4464 87.5035 41.734 81.7405 43.3431C81.5612 43.4418 81.3617 43.4995 81.1569 43.5122C80.9519 43.5249 80.7467 43.4922 80.5563 43.4164C80.3658 43.3407 80.1951 43.224 80.0564 43.0747C79.9177 42.9254 79.8146 42.7473 79.7547 42.5537C79.6949 42.36 79.6797 42.1556 79.7104 41.9553C79.7411 41.7551 79.8168 41.5643 79.932 41.3967C80.0473 41.2291 80.1991 41.0891 80.3763 40.9868C80.5536 40.8847 80.7517 40.8228 80.9563 40.8061C84.173 39.8929 87.5423 39.6228 90.8663 40.012C94.1903 40.401 97.402 41.4414 100.313 43.0719C100.608 43.2614 100.819 43.5558 100.901 43.8941C100.983 44.2325 100.93 44.5889 100.753 44.8898ZM100.932 40.0734C95.4288 36.8172 86.2253 36.5187 80.9151 38.1061C80.5064 38.2285 80.0652 38.1857 79.6886 37.9872C79.3119 37.7888 79.0306 37.4509 78.9066 37.0478C78.7825 36.6449 78.8258 36.2097 79.0271 35.8382C79.2283 35.4668 79.5709 35.1894 79.9796 35.0671C86.074 33.249 96.1854 33.6018 102.583 37.3328C102.911 37.5649 103.14 37.9106 103.222 38.3012C103.304 38.6916 103.234 39.0984 103.026 39.4404C102.818 39.7824 102.487 40.0346 102.099 40.1469C101.711 40.2592 101.294 40.2233 100.932 40.0463V40.0734Z" fill="#1ED760"/>
<path d="M125.961 39.3057C122.658 38.5188 122.067 37.9491 122.067 36.8365C122.067 35.724 123.099 35.0185 124.64 35.0185C126.291 35.0795 127.878 35.6756 129.151 36.7144C129.178 36.7275 129.206 36.7343 129.235 36.7343C129.263 36.7343 129.292 36.7275 129.317 36.7144C129.371 36.7041 129.42 36.6753 129.454 36.633L131.078 34.3808C131.11 34.3402 131.128 34.29 131.128 34.2383C131.128 34.1866 131.11 34.1365 131.078 34.0959C129.288 32.6509 127.035 31.8813 124.722 31.925C121.159 31.925 118.669 34.0416 118.669 37.0536C118.669 40.2962 120.815 41.4494 124.53 42.3313C127.693 43.0504 128.23 43.6881 128.23 44.7328C128.23 45.7774 127.143 46.6593 125.478 46.6593C123.511 46.6459 121.625 45.8769 120.224 44.5157C120.17 44.498 120.112 44.498 120.058 44.5157C120.002 44.5291 119.95 44.5572 119.907 44.5971L118.063 46.7C118.025 46.7403 118.003 46.7938 118.003 46.8492C118.003 46.9048 118.025 46.9582 118.063 46.9985C120.066 48.7676 122.666 49.7353 125.355 49.712C129.193 49.712 131.684 47.6361 131.684 44.4343C131.628 41.7615 129.977 40.269 125.961 39.3057Z" fill="black"/>
<path d="M140.323 36.0902C139.528 36.0853 138.742 36.2602 138.027 36.6012C137.311 36.9422 136.685 37.4404 136.195 38.0575V36.5651C136.192 36.5099 136.167 36.4581 136.126 36.4203C136.085 36.3825 136.031 36.3614 135.976 36.3615H132.99C132.934 36.3614 132.88 36.3825 132.839 36.4203C132.798 36.4581 132.774 36.5099 132.77 36.5651V53.1173C132.77 53.1749 132.793 53.2302 132.834 53.2709C132.876 53.3116 132.931 53.3344 132.99 53.3344H135.948C136.006 53.3344 136.062 53.3116 136.103 53.2709C136.144 53.2302 136.168 53.1749 136.168 53.1173V47.921C136.674 48.5122 137.306 48.9856 138.02 49.3069C138.733 49.6284 139.511 49.7898 140.295 49.7797C143.39 49.7797 146.527 47.4326 146.527 42.9282C146.527 38.4238 143.418 36.0902 140.323 36.0902ZM143.074 42.8739C143.126 43.3591 143.075 43.8496 142.924 44.3143C142.774 44.779 142.527 45.2078 142.2 45.5738C141.872 45.9397 141.472 46.2347 141.024 46.4403C140.575 46.6458 140.088 46.7573 139.594 46.7678C139.097 46.7526 138.61 46.6386 138.16 46.4326C137.71 46.2265 137.306 45.9327 136.975 45.5688C136.644 45.2049 136.39 44.7785 136.229 44.3154C136.07 43.8522 136.007 43.3618 136.044 42.8739C136.009 42.3871 136.073 41.8982 136.234 41.4366C136.395 40.9751 136.649 40.5503 136.98 40.1879C137.311 39.8256 137.715 39.533 138.163 39.3277C138.612 39.1224 139.098 39.0088 139.594 38.9937C140.094 39.0021 140.588 39.1134 141.042 39.3203C141.496 39.5272 141.902 39.8252 142.233 40.1953C142.565 40.5655 142.815 40.9997 142.966 41.4702C143.118 41.9407 143.169 42.4372 143.115 42.9282L143.074 42.8739Z" fill="black"/>
<path d="M154.589 36.09C153.214 36.1142 151.877 36.5394 150.747 37.3119C149.617 38.0844 148.744 39.1696 148.239 40.4307C147.734 41.6917 147.618 43.0722 147.907 44.3979C148.197 45.7235 148.878 46.935 149.864 47.8796C150.85 48.8242 152.099 49.4595 153.451 49.7053C154.802 49.9512 156.198 49.7967 157.462 49.2612C158.724 48.7258 159.799 47.8334 160.548 46.6966C161.299 45.5599 161.69 44.2297 161.674 42.8737C161.661 41.9692 161.468 41.076 161.105 40.2453C160.741 39.4145 160.215 38.6626 159.558 38.0325C158.9 37.4023 158.122 36.9064 157.269 36.5731C156.417 36.2398 155.505 36.0756 154.589 36.09ZM154.589 46.849C154.08 46.8424 153.579 46.7346 153.114 46.5319C152.649 46.3292 152.23 46.0359 151.883 45.6696C151.536 45.3034 151.268 44.8717 151.095 44.4005C150.921 43.9294 150.846 43.4285 150.874 42.928C150.842 42.4343 150.913 41.9395 151.082 41.4739C151.251 41.0084 151.516 40.582 151.859 40.221C152.202 39.86 152.616 39.5721 153.076 39.3749C153.536 39.1778 154.032 39.0757 154.534 39.0749C155.043 39.0779 155.547 39.1826 156.015 39.3827C156.483 39.5827 156.905 39.874 157.256 40.239C157.606 40.604 157.879 41.0352 158.056 41.5066C158.234 41.9779 158.313 42.4799 158.289 42.9822C158.321 43.4799 158.249 43.9789 158.077 44.4478C157.906 44.9169 157.638 45.3461 157.291 45.7087C156.943 46.0715 156.525 46.3598 156.06 46.5559C155.595 46.7521 155.094 46.8518 154.589 46.849Z" fill="black"/>
<path d="M170.189 36.3618H166.929V33.0785C166.929 33.0233 166.908 32.97 166.869 32.9296C166.831 32.8893 166.779 32.8649 166.723 32.8615H163.764C163.706 32.8615 163.65 32.8843 163.609 32.925C163.568 32.9657 163.545 33.021 163.545 33.0785V36.3618H162.087C162.06 36.3618 162.032 36.3671 162.007 36.3774C161.982 36.3875 161.959 36.4026 161.94 36.4215C161.921 36.4403 161.906 36.4628 161.896 36.4875C161.885 36.5121 161.88 36.5387 161.88 36.5653V39.0753C161.88 39.1306 161.901 39.1839 161.939 39.2243C161.978 39.2646 162.03 39.2889 162.087 39.2924H163.462V45.7776C163.462 48.3962 164.837 49.7258 167.396 49.7258C168.359 49.7526 169.311 49.5179 170.148 49.0474C170.181 49.0317 170.21 49.0066 170.229 48.9753C170.249 48.944 170.258 48.9078 170.258 48.871V46.4831C170.258 46.4462 170.25 46.4096 170.233 46.3766C170.216 46.3436 170.192 46.3149 170.162 46.2932C170.129 46.2727 170.091 46.2619 170.052 46.2619C170.013 46.2619 169.975 46.2727 169.942 46.2932C169.404 46.5616 168.81 46.701 168.208 46.7002C167.259 46.7002 166.833 46.2796 166.833 45.3435V39.2924H170.093C170.151 39.2924 170.207 39.2696 170.248 39.2289C170.29 39.1882 170.313 39.1329 170.313 39.0753V36.5653C170.315 36.5232 170.304 36.4816 170.282 36.4454C170.259 36.4093 170.227 36.3803 170.189 36.3618Z" fill="black"/>
<path d="M181.538 36.3757V35.9687C181.538 34.7748 181.992 34.2457 183.024 34.2457C183.598 34.2522 184.167 34.3578 184.703 34.5577C184.733 34.5712 184.766 34.5782 184.799 34.5782C184.832 34.5782 184.865 34.5712 184.896 34.5577C184.922 34.5367 184.944 34.5097 184.958 34.4791C184.972 34.4485 184.979 34.4151 184.978 34.3813V31.8985C184.98 31.8509 184.967 31.8039 184.94 31.7647C184.912 31.7255 184.872 31.6963 184.826 31.6814C184.023 31.473 183.194 31.3816 182.364 31.41C179.613 31.41 178.237 32.9296 178.237 35.7924V36.4164H176.861C176.807 36.4164 176.754 36.4378 176.716 36.476C176.677 36.5143 176.654 36.5659 176.654 36.6199V39.1435C176.654 39.1987 176.676 39.252 176.715 39.2924C176.753 39.3327 176.805 39.3571 176.861 39.3606H178.237V49.3734C178.237 49.4273 178.259 49.4791 178.297 49.5172C178.336 49.5554 178.388 49.5769 178.443 49.5769H181.346C181.402 49.577 181.456 49.5559 181.497 49.5181C181.538 49.4803 181.562 49.4285 181.566 49.3734V39.2927H184.318L188.555 49.292C188.073 50.3502 187.592 50.5537 186.945 50.5537C186.375 50.5385 185.817 50.3846 185.322 50.106C185.294 50.0927 185.264 50.0859 185.232 50.0859C185.201 50.0859 185.171 50.0927 185.143 50.106C185.115 50.1139 185.09 50.1277 185.069 50.1464C185.047 50.1653 185.03 50.1885 185.019 50.2146L184.097 52.3717C184.077 52.4208 184.076 52.4755 184.093 52.5254C184.111 52.5753 184.146 52.6172 184.194 52.6431C185.155 53.187 186.249 53.4636 187.357 53.4435C189.532 53.4435 190.742 52.4395 191.815 49.7397L196.946 36.6606C196.963 36.6293 196.972 36.5944 196.972 36.5588C196.972 36.5234 196.963 36.4885 196.946 36.4571C196.925 36.4308 196.898 36.4097 196.867 36.3956C196.836 36.3815 196.802 36.3747 196.768 36.3757H193.604C193.56 36.3785 193.518 36.3924 193.482 36.4163C193.445 36.44 193.416 36.4729 193.397 36.5114L190.247 45.398L186.849 36.5114C186.832 36.471 186.804 36.4363 186.767 36.4122C186.73 36.388 186.687 36.3753 186.642 36.3757H181.538Z" fill="black"/>
<path d="M174.963 36.3619H172.005C171.884 36.3619 171.785 36.459 171.785 36.579V49.3052C171.785 49.4251 171.884 49.5223 172.005 49.5223H174.963C175.085 49.5223 175.183 49.4251 175.183 49.3052V36.579C175.183 36.459 175.085 36.3619 174.963 36.3619Z" fill="black"/>
<path d="M173.491 30.5555C173.068 30.5528 172.654 30.6739 172.302 30.9032C171.949 31.1327 171.675 31.4602 171.511 31.8442C171.348 32.2283 171.303 32.6515 171.384 33.0603C171.465 33.4691 171.667 33.8451 171.964 34.1406C172.262 34.436 172.642 34.6376 173.055 34.7199C173.47 34.8021 173.899 34.7613 174.29 34.6026C174.68 34.4438 175.014 34.1742 175.249 33.8282C175.484 33.4821 175.61 33.075 175.61 32.6584C175.611 32.3829 175.557 32.1098 175.452 31.8547C175.346 31.5996 175.19 31.3677 174.994 31.1722C174.796 30.9768 174.563 30.8216 174.305 30.7158C174.046 30.6099 173.77 30.5555 173.491 30.5555Z" fill="black"/>
<path d="M199.409 40.4455C199.135 40.4473 198.865 40.3955 198.612 40.2933C198.359 40.1909 198.13 40.0401 197.936 39.8496C197.742 39.6589 197.59 39.4323 197.486 39.183C197.382 38.9336 197.33 38.6664 197.332 38.3969C197.332 37.8499 197.552 37.3254 197.944 36.9386C198.336 36.5519 198.869 36.3346 199.423 36.3346C199.696 36.3328 199.967 36.3846 200.22 36.4869C200.473 36.5892 200.703 36.7401 200.896 36.9306C201.089 37.1213 201.242 37.3478 201.346 37.5972C201.45 37.8465 201.502 38.1138 201.5 38.3834C201.5 38.9302 201.28 39.4548 200.888 39.8416C200.495 40.2282 199.964 40.4455 199.409 40.4455ZM199.409 36.5382C199.035 36.5355 198.669 36.6425 198.357 36.8457C198.045 37.0489 197.802 37.339 197.657 37.6792C197.513 38.0194 197.474 38.3943 197.546 38.7562C197.618 39.1179 197.799 39.4504 198.062 39.7112C198.327 39.972 198.664 40.1492 199.031 40.2205C199.398 40.2918 199.778 40.2538 200.123 40.1114C200.468 39.9691 200.762 39.7287 200.969 39.4211C201.174 39.1133 201.282 38.7521 201.28 38.3834C201.282 38.1416 201.235 37.902 201.143 37.6782C201.05 37.4545 200.913 37.251 200.741 37.0794C200.568 36.9079 200.363 36.7717 200.137 36.6788C199.911 36.5859 199.668 36.5382 199.423 36.5382H199.409ZM199.876 38.6003L200.455 39.4144H199.96L199.436 38.6683H198.983V39.4144H198.556V37.2572H199.533C200.042 37.2572 200.386 37.515 200.386 37.9356C200.389 38.0847 200.342 38.2306 200.253 38.3507C200.163 38.4709 200.036 38.5586 199.89 38.6003H199.876ZM199.519 37.6236H198.983V38.3019H199.519C199.794 38.3019 199.96 38.1798 199.96 37.9628C199.96 37.7457 199.808 37.6236 199.533 37.6236H199.519Z" fill="black"/>
</svg>
