<svg xmlns="http://www.w3.org/2000/svg" width="78" height="22" fill="none" viewBox="0 0 78 22"><mask id="path-1-outside-1_301_454" width="18" height="18" x="0" y="2" fill="#000" maskUnits="userSpaceOnUse"><rect width="18" height="18" y="2" fill="#fff"/><path d="M9.00003 3.00011C7.41775 3.00011 5.87102 3.46929 4.55542 4.34832C3.23986 5.2274 2.21449 6.47685 1.60895 7.93863C1.00346 9.40046 0.845035 11.009 1.15374 12.5608C1.46239 14.1127 2.22431 15.5381 3.34314 16.657C4.46197 17.7758 5.88745 18.5377 7.4393 18.8464C8.99114 19.1551 10.5997 18.9967 12.0615 18.3911C13.5233 17.7856 14.7727 16.7603 15.6518 15.4447C16.5308 14.1291 17 12.5824 17 11.0001C17 8.87836 16.1572 6.84355 14.6569 5.34327C13.1566 3.84294 11.1218 3.00011 9.00003 3.00011ZM12.6712 14.5372C12.6372 14.5938 12.5922 14.643 12.539 14.682C12.4858 14.721 12.4253 14.749 12.3611 14.7645C12.297 14.7799 12.2304 14.7824 12.1652 14.7719C12.1001 14.7614 12.0377 14.7381 11.9816 14.7032C10.1046 13.554 7.74223 13.2986 4.95851 13.9307C4.89517 13.9458 4.8295 13.9482 4.76523 13.9377C4.701 13.9272 4.63943 13.9041 4.58423 13.8696C4.52899 13.8352 4.48114 13.7901 4.44344 13.737C4.40575 13.6839 4.37903 13.6239 4.36475 13.5604C4.34953 13.4967 4.34711 13.4306 4.35748 13.3659C4.36791 13.3012 4.39095 13.2392 4.42534 13.1834C4.45974 13.1277 4.50483 13.0793 4.55793 13.041C4.61108 13.0027 4.67126 12.9752 4.73502 12.9602C7.78053 12.2643 10.3982 12.5643 12.5052 13.8541C12.6176 13.9228 12.6982 14.0333 12.7293 14.1613C12.7604 14.2894 12.7396 14.4246 12.6712 14.5372ZM13.6481 12.36C13.5588 12.4973 13.4203 12.595 13.2611 12.633C13.1019 12.671 12.9341 12.6465 12.7925 12.5643C10.3649 11.2102 7.49906 10.8749 4.82443 11.6322C4.74121 11.6786 4.64864 11.7058 4.55356 11.7117C4.45843 11.7177 4.36321 11.7023 4.27483 11.6667C4.18645 11.631 4.10719 11.5761 4.04283 11.5058C3.97846 11.4356 3.93062 11.3518 3.90283 11.2607C3.87505 11.1695 3.86802 11.0733 3.88226 10.9791C3.8965 10.8849 3.93164 10.7951 3.98511 10.7162C4.03859 10.6373 4.10905 10.5714 4.19129 10.5233C4.27357 10.4753 4.36554 10.4461 4.46048 10.4383C5.95336 10.0085 7.51707 9.88143 9.05974 10.0646C10.6024 10.2477 12.093 10.7372 13.4438 11.5045C13.581 11.5937 13.6787 11.7323 13.7167 11.8915C13.7547 12.0507 13.7302 12.2184 13.6481 12.36ZM13.731 10.0935C11.1772 8.56114 6.90585 8.42068 4.44135 9.16769C4.2517 9.2253 4.04692 9.20516 3.87212 9.11173C3.69731 9.01836 3.56676 8.85935 3.50919 8.66968C3.45162 8.48006 3.47173 8.27528 3.56514 8.10045C3.6585 7.92567 3.81752 7.79511 4.00718 7.73755C6.83562 6.882 11.5283 7.048 14.4972 8.80376C14.6498 8.91301 14.7558 9.07568 14.7939 9.25947C14.8321 9.44322 14.7996 9.63463 14.703 9.79561C14.6065 9.95654 14.4528 10.0752 14.2728 10.128C14.0927 10.1809 13.8992 10.164 13.731 10.0807V10.0935Z"/></mask><path fill="#1ED760" d="M9.00003 3.00011C7.41775 3.00011 5.87102 3.46929 4.55542 4.34832C3.23986 5.2274 2.21449 6.47685 1.60895 7.93863C1.00346 9.40046 0.845035 11.009 1.15374 12.5608C1.46239 14.1127 2.22431 15.5381 3.34314 16.657C4.46197 17.7758 5.88745 18.5377 7.4393 18.8464C8.99114 19.1551 10.5997 18.9967 12.0615 18.3911C13.5233 17.7856 14.7727 16.7603 15.6518 15.4447C16.5308 14.1291 17 12.5824 17 11.0001C17 8.87836 16.1572 6.84355 14.6569 5.34327C13.1566 3.84294 11.1218 3.00011 9.00003 3.00011ZM12.6712 14.5372C12.6372 14.5938 12.5922 14.643 12.539 14.682C12.4858 14.721 12.4253 14.749 12.3611 14.7645C12.297 14.7799 12.2304 14.7824 12.1652 14.7719C12.1001 14.7614 12.0377 14.7381 11.9816 14.7032C10.1046 13.554 7.74223 13.2986 4.95851 13.9307C4.89517 13.9458 4.8295 13.9482 4.76523 13.9377C4.701 13.9272 4.63943 13.9041 4.58423 13.8696C4.52899 13.8352 4.48114 13.7901 4.44344 13.737C4.40575 13.6839 4.37903 13.6239 4.36475 13.5604C4.34953 13.4967 4.34711 13.4306 4.35748 13.3659C4.36791 13.3012 4.39095 13.2392 4.42534 13.1834C4.45974 13.1277 4.50483 13.0793 4.55793 13.041C4.61108 13.0027 4.67126 12.9752 4.73502 12.9602C7.78053 12.2643 10.3982 12.5643 12.5052 13.8541C12.6176 13.9228 12.6982 14.0333 12.7293 14.1613C12.7604 14.2894 12.7396 14.4246 12.6712 14.5372ZM13.6481 12.36C13.5588 12.4973 13.4203 12.595 13.2611 12.633C13.1019 12.671 12.9341 12.6465 12.7925 12.5643C10.3649 11.2102 7.49906 10.8749 4.82443 11.6322C4.74121 11.6786 4.64864 11.7058 4.55356 11.7117C4.45843 11.7177 4.36321 11.7023 4.27483 11.6667C4.18645 11.631 4.10719 11.5761 4.04283 11.5058C3.97846 11.4356 3.93062 11.3518 3.90283 11.2607C3.87505 11.1695 3.86802 11.0733 3.88226 10.9791C3.8965 10.8849 3.93164 10.7951 3.98511 10.7162C4.03859 10.6373 4.10905 10.5714 4.19129 10.5233C4.27357 10.4753 4.36554 10.4461 4.46048 10.4383C5.95336 10.0085 7.51707 9.88143 9.05974 10.0646C10.6024 10.2477 12.093 10.7372 13.4438 11.5045C13.581 11.5937 13.6787 11.7323 13.7167 11.8915C13.7547 12.0507 13.7302 12.2184 13.6481 12.36ZM13.731 10.0935C11.1772 8.56114 6.90585 8.42068 4.44135 9.16769C4.2517 9.2253 4.04692 9.20516 3.87212 9.11173C3.69731 9.01836 3.56676 8.85935 3.50919 8.66968C3.45162 8.48006 3.47173 8.27528 3.56514 8.10045C3.6585 7.92567 3.81752 7.79511 4.00718 7.73755C6.83562 6.882 11.5283 7.048 14.4972 8.80376C14.6498 8.91301 14.7558 9.07568 14.7939 9.25947C14.8321 9.44322 14.7996 9.63463 14.703 9.79561C14.6065 9.95654 14.4528 10.0752 14.2728 10.128C14.0927 10.1809 13.8992 10.164 13.731 10.0807V10.0935Z"/><path fill="#000" d="M4.55542 4.34832L3.99986 3.51685L3.99983 3.51687L4.55542 4.34832ZM1.60895 7.93863L0.68508 7.55592L0.685065 7.55595L1.60895 7.93863ZM1.15374 12.5608L2.13453 12.3657L2.13452 12.3657L1.15374 12.5608ZM3.34314 16.657L2.63603 17.3641L2.63604 17.3641L3.34314 16.657ZM12.0615 18.3911L11.6788 17.4673L11.6788 17.4673L12.0615 18.3911ZM14.6569 5.34327L13.9498 6.05037L14.6569 5.34327ZM12.6712 14.5372L11.8163 14.0185L11.8144 14.0215L12.6712 14.5372ZM12.539 14.682L13.1301 15.4886L13.1304 15.4884L12.539 14.682ZM12.3611 14.7645L12.1272 13.7922L12.127 13.7923L12.3611 14.7645ZM11.9816 14.7032L12.5096 13.8539L12.5038 13.8504L11.9816 14.7032ZM4.95851 13.9307L4.73707 12.9554L4.72637 12.958L4.95851 13.9307ZM4.76523 13.9377L4.9267 12.9508L4.92611 12.9507L4.76523 13.9377ZM4.58423 13.8696L4.05499 14.7181L4.05518 14.7182L4.58423 13.8696ZM4.36475 13.5604L5.34045 13.3409L5.33738 13.328L4.36475 13.5604ZM4.35748 13.3659L3.37022 13.2068L3.37011 13.2075L4.35748 13.3659ZM4.42534 13.1834L3.57437 12.6582L3.57417 12.6585L4.42534 13.1834ZM4.55793 13.041L3.97322 12.2298L3.97288 12.23L4.55793 13.041ZM4.73502 12.9602L4.51225 11.9853L4.50568 11.9868L4.73502 12.9602ZM12.5052 13.8541L11.9831 14.707L11.9835 14.7072L12.5052 13.8541ZM12.7293 14.1613L11.7576 14.3973L11.7576 14.3976L12.7293 14.1613ZM13.6481 12.36L14.4865 12.905L14.5004 12.8836L14.5132 12.8616L13.6481 12.36ZM12.7925 12.5643L13.2941 11.6992L13.2869 11.6951L13.2797 11.691L12.7925 12.5643ZM4.82443 11.6322L4.55201 10.67L4.43939 10.7019L4.33718 10.7589L4.82443 11.6322ZM4.55356 11.7117L4.61611 12.7098L4.61614 12.7098L4.55356 11.7117ZM4.04283 11.5058L4.78028 10.8304L4.78006 10.8302L4.04283 11.5058ZM3.90283 11.2607L2.94627 11.5522L2.94631 11.5523L3.90283 11.2607ZM3.88226 10.9791L2.89349 10.8296L3.88226 10.9791ZM4.19129 10.5233L3.68683 9.65989L3.68625 9.66023L4.19129 10.5233ZM4.46048 10.4383L4.54327 11.4348L4.64195 11.4266L4.73711 11.3992L4.46048 10.4383ZM9.05974 10.0646L8.94185 11.0576L8.94188 11.0576L9.05974 10.0646ZM13.4438 11.5045L13.9887 10.666L13.9636 10.6498L13.9377 10.635L13.4438 11.5045ZM13.7167 11.8915L14.6894 11.6592L14.6894 11.6591L13.7167 11.8915ZM13.731 10.0935L13.2165 10.951L14.731 11.8597V10.0935H13.731ZM4.44135 9.16769L4.15127 8.21069L4.15073 8.21086L4.44135 9.16769ZM3.87212 9.11173L4.34347 8.22979L4.34328 8.22969L3.87212 9.11173ZM3.50919 8.66968L4.46608 8.37923L4.46606 8.37916L3.50919 8.66968ZM3.56514 8.10045L4.44714 8.57168L4.44719 8.5716L3.56514 8.10045ZM4.00718 7.73755L3.71765 6.78038L3.71677 6.78065L4.00718 7.73755ZM14.4972 8.80376L15.0793 7.99064L15.0438 7.96523L15.0063 7.94301L14.4972 8.80376ZM14.7939 9.25947L15.7731 9.05636L15.7731 9.05617L14.7939 9.25947ZM14.703 9.79561L15.5605 10.3101L15.5606 10.31L14.703 9.79561ZM14.2728 10.128L13.9913 9.16846L13.9912 9.16851L14.2728 10.128ZM13.731 10.0807L14.1748 9.18456L12.731 8.46968V10.0807H13.731ZM9.00003 2.00011C7.21997 2.00011 5.47991 2.52794 3.99986 3.51685L5.11098 5.1798C6.26214 4.41065 7.61553 4.00011 9.00003 4.00011V2.00011ZM3.99983 3.51687C2.51984 4.50583 1.3663 5.91143 0.68508 7.55592L2.53282 8.32134C3.06267 7.04226 3.95989 5.94898 5.11101 5.17978L3.99983 3.51687ZM0.685065 7.55595C0.003892 9.2005 -0.174338 11.0101 0.172955 12.7559L2.13452 12.3657C1.86441 11.0079 2.00302 9.60041 2.53283 8.3213L0.685065 7.55595ZM0.172948 12.7559C0.520188 14.5018 1.37735 16.1054 2.63603 17.3641L4.05025 15.9499C3.07127 14.9709 2.4046 13.7236 2.13453 12.3657L0.172948 12.7559ZM2.63604 17.3641C3.89472 18.6227 5.49838 19.4799 7.24421 19.8272L7.63439 17.8656C6.27653 17.5955 5.02922 16.9288 4.05023 15.9499L2.63604 17.3641ZM7.24421 19.8272C8.99002 20.1744 10.7996 19.9962 12.4442 19.315L11.6788 17.4673C10.3997 17.9971 8.99226 18.1357 7.63439 17.8656L7.24421 19.8272ZM12.4441 19.315C14.0887 18.6338 15.4943 17.4803 16.4832 16.0002L14.8203 14.8891C14.0511 16.0402 12.9579 16.9374 11.6788 17.4673L12.4441 19.315ZM16.4832 16.0002C17.4722 14.5202 18 12.7801 18 11.0001H16C16 12.3846 15.5895 13.738 14.8203 14.8891L16.4832 16.0002ZM18 11.0001C18 8.61315 17.0518 6.32398 15.364 4.63616L13.9498 6.05037C15.2625 7.36311 16 9.14357 16 11.0001H18ZM15.364 4.63616C13.6761 2.9483 11.387 2.00011 9.00003 2.00011V4.00011C10.8565 4.00011 12.637 4.73758 13.9498 6.05037L15.364 4.63616ZM11.8144 14.0215C11.8489 13.9643 11.8942 13.9147 11.9476 13.8756L13.1304 15.4884C13.2902 15.3712 13.4254 15.2232 13.528 15.0529L11.8144 14.0215ZM11.948 13.8753C12.0017 13.836 12.0626 13.8077 12.1272 13.7922L12.5951 15.7367C12.788 15.6903 12.9699 15.606 13.1301 15.4886L11.948 13.8753ZM12.127 13.7923C12.1918 13.7766 12.259 13.7741 12.3246 13.7847L12.0059 15.7591C12.2018 15.7908 12.4022 15.7832 12.5953 15.7367L12.127 13.7923ZM12.3246 13.7847C12.39 13.7952 12.4529 13.8187 12.5096 13.854L11.4537 15.5525C11.6225 15.6574 11.8102 15.7276 12.0059 15.7591L12.3246 13.7847ZM12.5038 13.8504C10.3425 12.5271 7.6944 12.284 4.73708 12.9555L5.17994 14.9059C7.79006 14.3132 9.86666 14.5809 11.4595 15.5561L12.5038 13.8504ZM4.72637 12.958C4.79173 12.9424 4.85986 12.9399 4.9267 12.9508L4.60376 14.9246C4.79914 14.9565 4.9986 14.9492 5.19065 14.9034L4.72637 12.958ZM4.92611 12.9507C4.99253 12.9615 5.0561 12.9854 5.11328 13.0211L4.05518 14.7182C4.22276 14.8227 4.40948 14.8929 4.60435 14.9246L4.92611 12.9507ZM5.11348 13.0212C5.1705 13.0567 5.21992 13.1033 5.25883 13.1581L3.62805 14.3159C3.74237 14.4769 3.88748 14.6136 4.05499 14.7181L5.11348 13.0212ZM5.25883 13.1581C5.29812 13.2134 5.32569 13.2757 5.34037 13.3409L3.38912 13.7798C3.43238 13.9721 3.51338 14.1544 3.62805 14.3159L5.25883 13.1581ZM5.33738 13.328C5.35292 13.3931 5.3552 13.4598 5.34486 13.5243L3.37011 13.2075C3.33901 13.4013 3.34613 13.6002 3.39211 13.7927L5.33738 13.328ZM5.34475 13.525C5.3343 13.5898 5.31115 13.6521 5.27651 13.7083L3.57417 12.6585C3.47075 12.8263 3.40152 13.0125 3.37022 13.2068L5.34475 13.525ZM5.27631 13.7086C5.24148 13.7651 5.19609 13.8137 5.14299 13.852L3.97288 12.23C3.81358 12.3449 3.678 12.4903 3.57437 12.6582L5.27631 13.7086ZM5.14265 13.8522C5.08926 13.8907 5.0287 13.9184 4.96436 13.9335L4.50568 11.9868C4.31383 12.0321 4.13291 12.1147 3.97322 12.2298L5.14265 13.8522ZM4.95779 13.9351C7.81975 13.2811 10.1543 13.5875 11.9831 14.707L13.0273 13.0012C10.6422 11.5412 7.74132 11.2474 4.51225 11.9853L4.95779 13.9351ZM11.9835 14.7072C11.8702 14.6379 11.7889 14.5265 11.7576 14.3973L13.7011 13.9253C13.6075 13.5401 13.365 13.2077 13.0269 13.0009L11.9835 14.7072ZM11.7576 14.3976C11.7262 14.2685 11.7473 14.1321 11.8163 14.0185L13.5261 15.056C13.7318 14.717 13.7947 14.3103 13.701 13.9251L11.7576 14.3976ZM12.8096 11.8151C12.8602 11.7372 12.9388 11.6819 13.0288 11.6604L13.4934 13.6057C13.9018 13.5081 14.2575 13.2574 14.4865 12.905L12.8096 11.8151ZM13.0288 11.6604C13.119 11.6388 13.214 11.6528 13.2941 11.6992L12.2909 13.4295C12.6543 13.6401 13.0847 13.7033 13.4934 13.6057L13.0288 11.6604ZM13.2797 11.691C10.6207 10.2078 7.48159 9.84055 4.55201 10.67L5.09684 12.5943C7.51652 11.9093 10.1092 12.2126 12.3054 13.4377L13.2797 11.691ZM4.33718 10.7589C4.38451 10.7325 4.43706 10.7171 4.49098 10.7137L4.61614 12.7098C4.86022 12.6945 5.09791 12.6247 5.31167 12.5054L4.33718 10.7589ZM4.49101 10.7137C4.5448 10.7103 4.59872 10.719 4.64876 10.7392L3.9009 12.5941C4.1277 12.6856 4.37206 12.7251 4.61611 12.7098L4.49101 10.7137ZM4.64876 10.7392C4.6987 10.7593 4.7437 10.7905 4.78028 10.8304L3.30537 12.1812C3.47069 12.3617 3.6742 12.5027 3.9009 12.5941L4.64876 10.7392ZM4.78006 10.8302C4.81658 10.87 4.84364 10.9175 4.85936 10.969L2.94631 11.5523C3.0176 11.7861 3.14034 12.0012 3.3056 12.1815L4.78006 10.8302ZM4.8594 10.9692C4.8751 11.0207 4.8791 11.0752 4.87103 11.1285L2.89349 10.8296C2.85694 11.0714 2.87499 11.3183 2.94627 11.5522L4.8594 10.9692ZM4.87103 11.1285C4.86297 11.1819 4.84306 11.2327 4.81281 11.2774L3.15742 10.155C3.02022 10.3574 2.93004 10.5879 2.89349 10.8296L4.87103 11.1285ZM4.81281 11.2774C4.78239 11.3222 4.7425 11.3594 4.69633 11.3864L3.68625 9.66023C3.47561 9.78349 3.29479 9.95239 3.15742 10.155L4.81281 11.2774ZM4.69575 11.3868C4.64962 11.4137 4.59757 11.4303 4.54327 11.4348L4.37769 9.44169C4.1335 9.46198 3.89753 9.5368 3.68683 9.65989L4.69575 11.3868ZM4.73711 11.3992C6.10195 11.0063 7.53153 10.8902 8.94185 11.0576L9.17763 9.07154C7.5026 8.87269 5.80476 9.01068 4.18385 9.47729L4.73711 11.3992ZM8.94188 11.0576C10.3522 11.225 11.7149 11.6726 12.9498 12.374L13.9377 10.635C12.471 9.80188 10.8526 9.27033 9.1776 9.07153L8.94188 11.0576ZM12.8988 12.343C12.8209 12.2923 12.7656 12.2138 12.7441 12.1238L14.6894 11.6591C14.5918 11.2507 14.3411 10.8951 13.9887 10.666L12.8988 12.343ZM12.7441 12.1237C12.7226 12.0337 12.7364 11.9387 12.783 11.8584L14.5132 12.8616C14.7239 12.4982 14.7869 12.0677 14.6894 11.6592L12.7441 12.1237ZM14.2456 9.236C12.7892 8.36215 10.9147 7.91915 9.13107 7.77891C7.3429 7.63831 5.52945 7.79295 4.15127 8.21069L4.73143 10.1247C5.81775 9.79542 7.37222 9.64679 8.97431 9.77275C10.5809 9.89907 12.1191 10.2925 13.2165 10.951L14.2456 9.236ZM4.15073 8.21086C4.21499 8.19134 4.28431 8.19817 4.34347 8.22979L3.40076 9.99368C3.80953 10.2121 4.28841 10.2593 4.73198 10.1245L4.15073 8.21086ZM4.34328 8.22969C4.40247 8.26131 4.44662 8.31512 4.46608 8.37923L2.5523 8.96013C2.6869 9.40357 2.99215 9.77541 3.40095 9.99378L4.34328 8.22969ZM4.46606 8.37916C4.48554 8.44331 4.47874 8.51255 4.44714 8.57168L2.68313 7.62922C2.46472 8.03802 2.41771 8.51682 2.55232 8.9602L4.46606 8.37916ZM4.44719 8.5716C4.41555 8.63084 4.36172 8.67499 4.29758 8.69446L3.71677 6.78065C3.27332 6.91523 2.90144 7.2205 2.68308 7.6293L4.44719 8.5716ZM4.2967 8.69472C5.56741 8.31036 7.31846 8.14203 9.11864 8.28814C10.9214 8.43444 12.6753 8.8881 13.9882 9.66451L15.0063 7.94301C13.3502 6.96366 11.2734 6.45644 9.28043 6.29469C7.28492 6.13274 5.27539 6.30919 3.71765 6.78038L4.2967 8.69472ZM13.9152 9.61689C13.8636 9.57995 13.8277 9.52493 13.8148 9.46278L15.7731 9.05617C15.6838 8.62643 15.4361 8.24607 15.0793 7.99064L13.9152 9.61689ZM13.8148 9.46259C13.8019 9.40035 13.8129 9.33559 13.8455 9.28118L15.5606 10.31C15.7864 9.93366 15.8622 9.4861 15.7731 9.05636L13.8148 9.46259ZM13.8456 9.28107C13.8783 9.22654 13.9303 9.18636 13.9913 9.16846L14.5542 11.0876C14.9754 10.9641 15.3346 10.6865 15.5605 10.3101L13.8456 9.28107ZM13.9912 9.16851C14.0522 9.15059 14.1177 9.15631 14.1748 9.18456L13.2873 10.9769C13.6807 11.1717 14.1331 11.2112 14.5544 11.0876L13.9912 9.16851ZM12.731 10.0807V10.0935H14.731V10.0807H12.731Z" mask="url(#path-1-outside-1_301_454)"/><path fill="#000" d="M29.382 16.168C28.6073 16.168 27.856 16.0653 27.128 15.86C26.4093 15.6453 25.8307 15.37 25.392 15.034L26.162 13.326C26.582 13.634 27.0813 13.8813 27.66 14.068C28.2387 14.2547 28.8173 14.348 29.396 14.348C30.04 14.348 30.516 14.2547 30.824 14.068C31.132 13.872 31.286 13.6153 31.286 13.298C31.286 13.0647 31.1927 12.8733 31.006 12.724C30.8287 12.5653 30.5953 12.4393 30.306 12.346C30.026 12.2527 29.6433 12.15 29.158 12.038C28.4113 11.8607 27.8 11.6833 27.324 11.506C26.848 11.3287 26.4373 11.044 26.092 10.652C25.756 10.26 25.588 9.73733 25.588 9.084C25.588 8.51467 25.742 8.00133 26.05 7.544C26.358 7.07733 26.82 6.70867 27.436 6.438C28.0613 6.16733 28.822 6.032 29.718 6.032C30.3433 6.032 30.9547 6.10667 31.552 6.256C32.1493 6.40533 32.672 6.62 33.12 6.9L32.42 8.622C31.5147 8.10867 30.6093 7.852 29.704 7.852C29.0693 7.852 28.598 7.95467 28.29 8.16C27.9913 8.36533 27.842 8.636 27.842 8.972C27.842 9.308 28.0147 9.56 28.36 9.728C28.7147 9.88667 29.2513 10.0453 29.97 10.204C30.7167 10.3813 31.328 10.5587 31.804 10.736C32.28 10.9133 32.686 11.1933 33.022 11.576C33.3673 11.9587 33.54 12.4767 33.54 13.13C33.54 13.69 33.3813 14.2033 33.064 14.67C32.756 15.1273 32.2893 15.4913 31.664 15.762C31.0387 16.0327 30.278 16.168 29.382 16.168ZM39.3877 8.356C40.0877 8.356 40.7224 8.51933 41.2917 8.846C41.8704 9.16333 42.3231 9.616 42.6497 10.204C42.9764 10.7827 43.1397 11.4593 43.1397 12.234C43.1397 13.0087 42.9764 13.69 42.6497 14.278C42.3231 14.8567 41.8704 15.3093 41.2917 15.636C40.7224 15.9533 40.0877 16.112 39.3877 16.112C38.4264 16.112 37.6704 15.8087 37.1197 15.202V18.716H34.9357V8.468H37.0217V9.336C37.5631 8.68267 38.3517 8.356 39.3877 8.356ZM39.0097 14.32C39.5697 14.32 40.0271 14.1333 40.3817 13.76C40.7457 13.3773 40.9277 12.8687 40.9277 12.234C40.9277 11.5993 40.7457 11.0953 40.3817 10.722C40.0271 10.3393 39.5697 10.148 39.0097 10.148C38.4497 10.148 37.9877 10.3393 37.6237 10.722C37.2691 11.0953 37.0917 11.5993 37.0917 12.234C37.0917 12.8687 37.2691 13.3773 37.6237 13.76C37.9877 14.1333 38.4497 14.32 39.0097 14.32ZM48.1858 16.112C47.3924 16.112 46.6784 15.9487 46.0438 15.622C45.4184 15.286 44.9284 14.824 44.5738 14.236C44.2191 13.648 44.0418 12.9807 44.0418 12.234C44.0418 11.4873 44.2191 10.82 44.5738 10.232C44.9284 9.644 45.4184 9.18667 46.0438 8.86C46.6784 8.524 47.3924 8.356 48.1858 8.356C48.9791 8.356 49.6884 8.524 50.3138 8.86C50.9391 9.18667 51.4291 9.644 51.7838 10.232C52.1384 10.82 52.3158 11.4873 52.3158 12.234C52.3158 12.9807 52.1384 13.648 51.7838 14.236C51.4291 14.824 50.9391 15.286 50.3138 15.622C49.6884 15.9487 48.9791 16.112 48.1858 16.112ZM48.1858 14.32C48.7458 14.32 49.2031 14.1333 49.5578 13.76C49.9218 13.3773 50.1038 12.8687 50.1038 12.234C50.1038 11.5993 49.9218 11.0953 49.5578 10.722C49.2031 10.3393 48.7458 10.148 48.1858 10.148C47.6258 10.148 47.1638 10.3393 46.7998 10.722C46.4358 11.0953 46.2538 11.5993 46.2538 12.234C46.2538 12.8687 46.4358 13.3773 46.7998 13.76C47.1638 14.1333 47.6258 14.32 48.1858 14.32ZM58.3116 15.636C58.0969 15.7947 57.8309 15.916 57.5136 16C57.2056 16.0747 56.8836 16.112 56.5476 16.112C55.6422 16.112 54.9469 15.8833 54.4616 15.426C53.9762 14.9687 53.7336 14.2967 53.7336 13.41V6.802H55.9176V8.636H57.7796V10.316H55.9176V13.382C55.9176 13.6993 55.9969 13.9467 56.1556 14.124C56.3142 14.292 56.5429 14.376 56.8416 14.376C57.1776 14.376 57.4762 14.2827 57.7376 14.096L58.3116 15.636ZM59.5451 8.468H61.7291V16H59.5451V8.468ZM60.6371 7.418C60.2358 7.418 59.9091 7.30133 59.6571 7.068C59.4051 6.83467 59.2791 6.54533 59.2791 6.2C59.2791 5.85467 59.4051 5.56533 59.6571 5.332C59.9091 5.09867 60.2358 4.982 60.6371 4.982C61.0384 4.982 61.3651 5.094 61.6171 5.318C61.8691 5.542 61.9951 5.822 61.9951 6.158C61.9951 6.522 61.8691 6.82533 61.6171 7.068C61.3651 7.30133 61.0384 7.418 60.6371 7.418ZM65.884 8.636H67.816V10.316H65.94V16H63.756V8.3C63.756 7.44133 64.008 6.76 64.512 6.256C65.0254 5.752 65.744 5.5 66.668 5.5C66.9947 5.5 67.3027 5.53733 67.592 5.612C67.8907 5.67733 68.138 5.77533 68.334 5.906L67.76 7.488C67.508 7.31067 67.214 7.222 66.878 7.222C66.2154 7.222 65.884 7.586 65.884 8.314V8.636ZM76.4983 8.468V14.74C76.4983 16.1213 76.1483 17.148 75.4483 17.82C74.7483 18.492 73.731 18.828 72.3963 18.828C71.687 18.828 71.015 18.7393 70.3803 18.562C69.755 18.3847 69.2277 18.128 68.7983 17.792L69.6663 16.224C69.9837 16.4853 70.371 16.6907 70.8283 16.84C71.2857 16.9893 71.7477 17.064 72.2143 17.064C72.9423 17.064 73.4743 16.896 73.8103 16.56C74.1463 16.224 74.3143 15.7107 74.3143 15.02V14.768C74.0343 15.048 73.703 15.2627 73.3203 15.412C72.9377 15.5613 72.527 15.636 72.0883 15.636C71.099 15.636 70.315 15.356 69.7363 14.796C69.1577 14.2267 68.8683 13.3773 68.8683 12.248V8.468H71.0523V11.926C71.0523 13.1487 71.561 13.76 72.5783 13.76C73.101 13.76 73.521 13.592 73.8383 13.256C74.1557 12.9107 74.3143 12.402 74.3143 11.73V8.468H76.4983Z"/></svg>