<svg width="237" height="22" viewBox="0 0 237 22" fill="none" xmlns="http://www.w3.org/2000/svg">
<mask id="path-1-outside-1_301_394" maskUnits="userSpaceOnUse" x="0" y="2" width="18" height="18" fill="black">
<rect fill="white" y="2" width="18" height="18"/>
<path d="M9.00003 3C7.41775 3 5.87102 3.46919 4.55542 4.34822C3.23986 5.2273 2.21449 6.47674 1.60895 7.93852C1.00346 9.40035 0.845035 11.0089 1.15374 12.5607C1.46239 14.1126 2.22431 15.538 3.34314 16.6569C4.46197 17.7757 5.88745 18.5376 7.4393 18.8463C8.99114 19.155 10.5997 18.9966 12.0615 18.391C13.5233 17.7855 14.7727 16.7601 15.6518 15.4446C16.5308 14.129 17 12.5823 17 11C17 8.87825 16.1572 6.84344 14.6569 5.34316C13.1566 3.84284 11.1218 3 9.00003 3ZM12.6712 14.5371C12.6372 14.5936 12.5922 14.6428 12.539 14.6819C12.4858 14.7209 12.4253 14.7489 12.3611 14.7643C12.297 14.7798 12.2304 14.7823 12.1652 14.7718C12.1001 14.7613 12.0377 14.738 11.9816 14.7031C10.1046 13.5539 7.74223 13.2985 4.95851 13.9306C4.89517 13.9457 4.8295 13.9481 4.76523 13.9376C4.701 13.9271 4.63943 13.904 4.58423 13.8695C4.52899 13.8351 4.48114 13.79 4.44344 13.7369C4.40575 13.6838 4.37903 13.6238 4.36475 13.5603C4.34953 13.4965 4.34711 13.4304 4.35748 13.3658C4.36791 13.3011 4.39095 13.2391 4.42534 13.1833C4.45974 13.1276 4.50483 13.0792 4.55793 13.0409C4.61108 13.0026 4.67126 12.9751 4.73502 12.9601C7.78053 12.2641 10.3982 12.5642 12.5052 13.854C12.6176 13.9227 12.6982 14.0332 12.7293 14.1612C12.7604 14.2893 12.7396 14.4245 12.6712 14.5371ZM13.6481 12.3599C13.5588 12.4972 13.4203 12.5949 13.2611 12.6329C13.1019 12.6709 12.9341 12.6463 12.7925 12.5642C10.3649 11.2101 7.49906 10.8748 4.82443 11.6321C4.74121 11.6785 4.64864 11.7057 4.55356 11.7116C4.45843 11.7176 4.36321 11.7022 4.27483 11.6666C4.18645 11.6309 4.10719 11.576 4.04283 11.5057C3.97846 11.4355 3.93062 11.3517 3.90283 11.2606C3.87505 11.1694 3.86802 11.0732 3.88226 10.979C3.8965 10.8848 3.93164 10.7949 3.98511 10.7161C4.03859 10.6372 4.10905 10.5713 4.19129 10.5232C4.27357 10.4751 4.36554 10.446 4.46048 10.4382C5.95336 10.0084 7.51707 9.88132 9.05974 10.0645C10.6024 10.2476 12.093 10.7371 13.4438 11.5044C13.581 11.5936 13.6787 11.7321 13.7167 11.8913C13.7547 12.0506 13.7302 12.2183 13.6481 12.3599ZM13.731 10.0934C11.1772 8.56103 6.90585 8.42057 4.44135 9.16759C4.2517 9.22519 4.04692 9.20505 3.87212 9.11163C3.69731 9.01825 3.56676 8.85924 3.50919 8.66958C3.45162 8.47996 3.47173 8.27518 3.56514 8.10035C3.6585 7.92556 3.81752 7.795 4.00718 7.73745C6.83562 6.88189 11.5283 7.04789 14.4972 8.80366C14.6498 8.9129 14.7558 9.07557 14.7939 9.25937C14.8321 9.44312 14.7996 9.63452 14.703 9.7955C14.6065 9.95643 14.4528 10.0751 14.2728 10.1279C14.0927 10.1808 13.8992 10.1639 13.731 10.0806V10.0934Z"/>
</mask>
<path d="M9.00003 3C7.41775 3 5.87102 3.46919 4.55542 4.34822C3.23986 5.2273 2.21449 6.47674 1.60895 7.93852C1.00346 9.40035 0.845035 11.0089 1.15374 12.5607C1.46239 14.1126 2.22431 15.538 3.34314 16.6569C4.46197 17.7757 5.88745 18.5376 7.4393 18.8463C8.99114 19.155 10.5997 18.9966 12.0615 18.391C13.5233 17.7855 14.7727 16.7601 15.6518 15.4446C16.5308 14.129 17 12.5823 17 11C17 8.87825 16.1572 6.84344 14.6569 5.34316C13.1566 3.84284 11.1218 3 9.00003 3ZM12.6712 14.5371C12.6372 14.5936 12.5922 14.6428 12.539 14.6819C12.4858 14.7209 12.4253 14.7489 12.3611 14.7643C12.297 14.7798 12.2304 14.7823 12.1652 14.7718C12.1001 14.7613 12.0377 14.738 11.9816 14.7031C10.1046 13.5539 7.74223 13.2985 4.95851 13.9306C4.89517 13.9457 4.8295 13.9481 4.76523 13.9376C4.701 13.9271 4.63943 13.904 4.58423 13.8695C4.52899 13.8351 4.48114 13.79 4.44344 13.7369C4.40575 13.6838 4.37903 13.6238 4.36475 13.5603C4.34953 13.4965 4.34711 13.4304 4.35748 13.3658C4.36791 13.3011 4.39095 13.2391 4.42534 13.1833C4.45974 13.1276 4.50483 13.0792 4.55793 13.0409C4.61108 13.0026 4.67126 12.9751 4.73502 12.9601C7.78053 12.2641 10.3982 12.5642 12.5052 13.854C12.6176 13.9227 12.6982 14.0332 12.7293 14.1612C12.7604 14.2893 12.7396 14.4245 12.6712 14.5371ZM13.6481 12.3599C13.5588 12.4972 13.4203 12.5949 13.2611 12.6329C13.1019 12.6709 12.9341 12.6463 12.7925 12.5642C10.3649 11.2101 7.49906 10.8748 4.82443 11.6321C4.74121 11.6785 4.64864 11.7057 4.55356 11.7116C4.45843 11.7176 4.36321 11.7022 4.27483 11.6666C4.18645 11.6309 4.10719 11.576 4.04283 11.5057C3.97846 11.4355 3.93062 11.3517 3.90283 11.2606C3.87505 11.1694 3.86802 11.0732 3.88226 10.979C3.8965 10.8848 3.93164 10.7949 3.98511 10.7161C4.03859 10.6372 4.10905 10.5713 4.19129 10.5232C4.27357 10.4751 4.36554 10.446 4.46048 10.4382C5.95336 10.0084 7.51707 9.88132 9.05974 10.0645C10.6024 10.2476 12.093 10.7371 13.4438 11.5044C13.581 11.5936 13.6787 11.7321 13.7167 11.8913C13.7547 12.0506 13.7302 12.2183 13.6481 12.3599ZM13.731 10.0934C11.1772 8.56103 6.90585 8.42057 4.44135 9.16759C4.2517 9.22519 4.04692 9.20505 3.87212 9.11163C3.69731 9.01825 3.56676 8.85924 3.50919 8.66958C3.45162 8.47996 3.47173 8.27518 3.56514 8.10035C3.6585 7.92556 3.81752 7.795 4.00718 7.73745C6.83562 6.88189 11.5283 7.04789 14.4972 8.80366C14.6498 8.9129 14.7558 9.07557 14.7939 9.25937C14.8321 9.44312 14.7996 9.63452 14.703 9.7955C14.6065 9.95643 14.4528 10.0751 14.2728 10.1279C14.0927 10.1808 13.8992 10.1639 13.731 10.0806V10.0934Z" fill="#1ED760"/>
<path d="M4.55542 4.34822L3.99986 3.51674L3.99983 3.51676L4.55542 4.34822ZM1.60895 7.93852L0.68508 7.55581L0.685065 7.55585L1.60895 7.93852ZM1.15374 12.5607L2.13453 12.3656L2.13452 12.3656L1.15374 12.5607ZM3.34314 16.6569L2.63603 17.364L2.63604 17.364L3.34314 16.6569ZM12.0615 18.391L11.6788 17.4672L11.6788 17.4672L12.0615 18.391ZM14.6569 5.34316L13.9498 6.05027L14.6569 5.34316ZM12.6712 14.5371L11.8163 14.0184L11.8144 14.0214L12.6712 14.5371ZM12.539 14.6819L13.1301 15.4885L13.1304 15.4882L12.539 14.6819ZM12.3611 14.7643L12.1272 13.7921L12.127 13.7921L12.3611 14.7643ZM11.9816 14.7031L12.5096 13.8538L12.5038 13.8503L11.9816 14.7031ZM4.95851 13.9306L4.73707 12.9553L4.72637 12.9579L4.95851 13.9306ZM4.76523 13.9376L4.9267 12.9507L4.92611 12.9506L4.76523 13.9376ZM4.58423 13.8695L4.05499 14.718L4.05518 14.7181L4.58423 13.8695ZM4.36475 13.5603L5.34045 13.3408L5.33738 13.3279L4.36475 13.5603ZM4.35748 13.3658L3.37022 13.2067L3.37011 13.2074L4.35748 13.3658ZM4.42534 13.1833L3.57437 12.6581L3.57417 12.6584L4.42534 13.1833ZM4.55793 13.0409L3.97322 12.2296L3.97288 12.2299L4.55793 13.0409ZM4.73502 12.9601L4.51225 11.9852L4.50568 11.9867L4.73502 12.9601ZM12.5052 13.854L11.9831 14.7069L11.9835 14.7071L12.5052 13.854ZM12.7293 14.1612L11.7576 14.3972L11.7576 14.3975L12.7293 14.1612ZM13.6481 12.3599L14.4865 12.9049L14.5004 12.8835L14.5132 12.8615L13.6481 12.3599ZM12.7925 12.5642L13.2941 11.6991L13.2869 11.695L13.2797 11.6909L12.7925 12.5642ZM4.82443 11.6321L4.55201 10.6699L4.43939 10.7018L4.33718 10.7588L4.82443 11.6321ZM4.55356 11.7116L4.61611 12.7097L4.61614 12.7097L4.55356 11.7116ZM4.04283 11.5057L4.78028 10.8303L4.78006 10.8301L4.04283 11.5057ZM3.90283 11.2606L2.94627 11.5521L2.94631 11.5522L3.90283 11.2606ZM3.88226 10.979L2.89349 10.8295L3.88226 10.979ZM4.19129 10.5232L3.68683 9.65979L3.68625 9.66012L4.19129 10.5232ZM4.46048 10.4382L4.54327 11.4347L4.64195 11.4265L4.73711 11.3991L4.46048 10.4382ZM9.05974 10.0645L8.94185 11.0575L8.94188 11.0575L9.05974 10.0645ZM13.4438 11.5044L13.9887 10.6659L13.9636 10.6497L13.9377 10.6349L13.4438 11.5044ZM13.7167 11.8913L14.6894 11.6591L14.6894 11.659L13.7167 11.8913ZM13.731 10.0934L13.2165 10.9509L14.731 11.8596V10.0934H13.731ZM4.44135 9.16759L4.15127 8.21058L4.15073 8.21075L4.44135 9.16759ZM3.87212 9.11163L4.34347 8.22968L4.34328 8.22958L3.87212 9.11163ZM3.50919 8.66958L4.46608 8.37912L4.46606 8.37906L3.50919 8.66958ZM3.56514 8.10035L4.44714 8.57158L4.44719 8.57149L3.56514 8.10035ZM4.00718 7.73745L3.71765 6.78028L3.71677 6.78054L4.00718 7.73745ZM14.4972 8.80366L15.0793 7.99053L15.0438 7.96512L15.0063 7.94291L14.4972 8.80366ZM14.7939 9.25937L15.7731 9.05625L15.7731 9.05607L14.7939 9.25937ZM14.703 9.7955L15.5605 10.31L15.5606 10.3099L14.703 9.7955ZM14.2728 10.1279L13.9913 9.16835L13.9912 9.1684L14.2728 10.1279ZM13.731 10.0806L14.1748 9.18445L12.731 8.46958V10.0806H13.731ZM9.00003 2C7.21997 2 5.47991 2.52783 3.99986 3.51674L5.11098 5.1797C6.26214 4.41054 7.61553 4 9.00003 4V2ZM3.99983 3.51676C2.51984 4.50572 1.3663 5.91133 0.68508 7.55581L2.53282 8.32123C3.06267 7.04215 3.95989 5.94887 5.11101 5.17967L3.99983 3.51676ZM0.685065 7.55585C0.003892 9.20039 -0.174338 11.01 0.172955 12.7558L2.13452 12.3656C1.86441 11.0078 2.00302 9.6003 2.53283 8.32119L0.685065 7.55585ZM0.172948 12.7558C0.520188 14.5016 1.37735 16.1053 2.63603 17.364L4.05025 15.9498C3.07127 14.9708 2.4046 13.7235 2.13453 12.3656L0.172948 12.7558ZM2.63604 17.364C3.89472 18.6226 5.49838 19.4798 7.24421 19.8271L7.63439 17.8655C6.27653 17.5954 5.02922 16.9287 4.05023 15.9497L2.63604 17.364ZM7.24421 19.8271C8.99002 20.1743 10.7996 19.9961 12.4442 19.3149L11.6788 17.4672C10.3997 17.997 8.99226 18.1356 7.63439 17.8655L7.24421 19.8271ZM12.4441 19.3149C14.0887 18.6337 15.4943 17.4802 16.4832 16.0001L14.8203 14.889C14.0511 16.0401 12.9579 16.9373 11.6788 17.4672L12.4441 19.3149ZM16.4832 16.0001C17.4722 14.5201 18 12.78 18 11H16C16 12.3845 15.5895 13.7379 14.8203 14.889L16.4832 16.0001ZM18 11C18 8.61304 17.0518 6.32387 15.364 4.63606L13.9498 6.05027C15.2625 7.36301 16 9.14347 16 11H18ZM15.364 4.63606C13.6761 2.94819 11.387 2 9.00003 2V4C10.8565 4 12.637 4.73748 13.9498 6.05027L15.364 4.63606ZM11.8144 14.0214C11.8489 13.9642 11.8942 13.9146 11.9476 13.8755L13.1304 15.4882C13.2902 15.3711 13.4254 15.2231 13.528 15.0528L11.8144 14.0214ZM11.948 13.8752C12.0017 13.8359 12.0626 13.8076 12.1272 13.7921L12.5951 15.7366C12.788 15.6902 12.9699 15.6059 13.1301 15.4885L11.948 13.8752ZM12.127 13.7921C12.1918 13.7765 12.259 13.774 12.3246 13.7846L12.0059 15.759C12.2018 15.7907 12.4022 15.7831 12.5953 15.7365L12.127 13.7921ZM12.3246 13.7846C12.39 13.7951 12.4529 13.8186 12.5096 13.8539L11.4537 15.5524C11.6225 15.6573 11.8102 15.7275 12.0059 15.759L12.3246 13.7846ZM12.5038 13.8503C10.3425 12.527 7.6944 12.2839 4.73708 12.9554L5.17994 14.9057C7.79006 14.3131 9.86666 14.5808 11.4595 15.556L12.5038 13.8503ZM4.72637 12.9579C4.79173 12.9423 4.85986 12.9398 4.9267 12.9507L4.60376 14.9244C4.79914 14.9564 4.9986 14.9491 5.19065 14.9033L4.72637 12.9579ZM4.92611 12.9506C4.99253 12.9614 5.0561 12.9853 5.11328 13.0209L4.05518 14.7181C4.22276 14.8226 4.40948 14.8928 4.60435 14.9245L4.92611 12.9506ZM5.11348 13.0211C5.1705 13.0566 5.21992 13.1032 5.25883 13.158L3.62805 14.3158C3.74237 14.4768 3.88748 14.6135 4.05499 14.718L5.11348 13.0211ZM5.25883 13.158C5.29812 13.2133 5.32569 13.2756 5.34037 13.3408L3.38912 13.7797C3.43238 13.972 3.51338 14.1543 3.62805 14.3158L5.25883 13.158ZM5.33738 13.3279C5.35292 13.393 5.3552 13.4597 5.34486 13.5242L3.37011 13.2074C3.33901 13.4012 3.34613 13.6001 3.39211 13.7926L5.33738 13.3279ZM5.34475 13.5248C5.3343 13.5897 5.31115 13.652 5.27651 13.7082L3.57417 12.6584C3.47075 12.8261 3.40152 13.0124 3.37022 13.2067L5.34475 13.5248ZM5.27631 13.7085C5.24148 13.765 5.19609 13.8136 5.14299 13.8519L3.97288 12.2299C3.81358 12.3448 3.678 12.4902 3.57437 12.6581L5.27631 13.7085ZM5.14265 13.8521C5.08926 13.8906 5.0287 13.9183 4.96436 13.9334L4.50568 11.9867C4.31383 12.0319 4.13291 12.1145 3.97322 12.2296L5.14265 13.8521ZM4.95779 13.935C7.81975 13.281 10.1543 13.5874 11.9831 14.7069L13.0273 13.0011C10.6422 11.5411 7.74132 11.2473 4.51225 11.9852L4.95779 13.935ZM11.9835 14.7071C11.8702 14.6378 11.7889 14.5264 11.7576 14.3972L13.7011 13.9252C13.6075 13.54 13.365 13.2076 13.0269 13.0008L11.9835 14.7071ZM11.7576 14.3975C11.7262 14.2684 11.7473 14.132 11.8163 14.0184L13.5261 15.0559C13.7318 14.7169 13.7947 14.3102 13.701 13.925L11.7576 14.3975ZM12.8096 11.815C12.8602 11.7371 12.9388 11.6818 13.0288 11.6603L13.4934 13.6056C13.9018 13.508 14.2575 13.2573 14.4865 12.9049L12.8096 11.815ZM13.0288 11.6603C13.119 11.6387 13.214 11.6527 13.2941 11.6991L12.2909 13.4293C12.6543 13.64 13.0847 13.7032 13.4934 13.6056L13.0288 11.6603ZM13.2797 11.6909C10.6207 10.2076 7.48159 9.84044 4.55201 10.6699L5.09684 12.5942C7.51652 11.9092 10.1092 12.2125 12.3054 13.4375L13.2797 11.6909ZM4.33718 10.7588C4.38451 10.7324 4.43706 10.717 4.49098 10.7136L4.61614 12.7097C4.86022 12.6944 5.09791 12.6246 5.31167 12.5053L4.33718 10.7588ZM4.49101 10.7136C4.5448 10.7102 4.59872 10.7189 4.64876 10.7391L3.9009 12.594C4.1277 12.6855 4.37206 12.725 4.61611 12.7097L4.49101 10.7136ZM4.64876 10.7391C4.6987 10.7592 4.7437 10.7904 4.78028 10.8303L3.30537 12.1811C3.47069 12.3616 3.6742 12.5026 3.9009 12.594L4.64876 10.7391ZM4.78006 10.8301C4.81658 10.8699 4.84364 10.9174 4.85936 10.9689L2.94631 11.5522C3.0176 11.786 3.14034 12.001 3.3056 12.1814L4.78006 10.8301ZM4.8594 10.9691C4.8751 11.0206 4.8791 11.0751 4.87103 11.1284L2.89349 10.8295C2.85694 11.0713 2.87499 11.3182 2.94627 11.5521L4.8594 10.9691ZM4.87103 11.1284C4.86297 11.1818 4.84306 11.2326 4.81281 11.2773L3.15742 10.1549C3.02022 10.3573 2.93004 10.5877 2.89349 10.8295L4.87103 11.1284ZM4.81281 11.2773C4.78239 11.3221 4.7425 11.3593 4.69633 11.3863L3.68625 9.66012C3.47561 9.78338 3.29479 9.95229 3.15742 10.1549L4.81281 11.2773ZM4.69575 11.3867C4.64962 11.4136 4.59757 11.4302 4.54327 11.4347L4.37769 9.44159C4.1335 9.46187 3.89753 9.53669 3.68683 9.65979L4.69575 11.3867ZM4.73711 11.3991C6.10195 11.0062 7.53153 10.8901 8.94185 11.0575L9.17763 9.07143C7.5026 8.87258 5.80476 9.01057 4.18385 9.47718L4.73711 11.3991ZM8.94188 11.0575C10.3522 11.2249 11.7149 11.6724 12.9498 12.3739L13.9377 10.6349C12.471 9.80178 10.8526 9.27022 9.1776 9.07143L8.94188 11.0575ZM12.8988 12.3429C12.8209 12.2922 12.7656 12.2137 12.7441 12.1237L14.6894 11.659C14.5918 11.2506 14.3411 10.895 13.9887 10.6659L12.8988 12.3429ZM12.7441 12.1236C12.7226 12.0336 12.7364 11.9386 12.783 11.8583L14.5132 12.8615C14.7239 12.4981 14.7869 12.0676 14.6894 11.6591L12.7441 12.1236ZM14.2456 9.23589C12.7892 8.36205 10.9147 7.91904 9.13107 7.7788C7.3429 7.6382 5.52945 7.79284 4.15127 8.21058L4.73143 10.1246C5.81775 9.79531 7.37222 9.64668 8.97431 9.77265C10.5809 9.89897 12.1191 10.2924 13.2165 10.9509L14.2456 9.23589ZM4.15073 8.21075C4.21499 8.19123 4.28431 8.19807 4.34347 8.22968L3.40076 9.99357C3.80953 10.212 4.28841 10.2592 4.73198 10.1244L4.15073 8.21075ZM4.34328 8.22958C4.40247 8.2612 4.44662 8.31502 4.46608 8.37912L2.5523 8.96003C2.6869 9.40346 2.99215 9.7753 3.40095 9.99367L4.34328 8.22958ZM4.46606 8.37906C4.48554 8.4432 4.47874 8.51244 4.44714 8.57158L2.68313 7.62911C2.46472 8.03791 2.41771 8.51671 2.55232 8.96009L4.46606 8.37906ZM4.44719 8.57149C4.41555 8.63073 4.36172 8.67488 4.29758 8.69435L3.71677 6.78054C3.27332 6.91512 2.90144 7.22039 2.68308 7.6292L4.44719 8.57149ZM4.2967 8.69462C5.56741 8.31025 7.31846 8.14193 9.11864 8.28803C10.9214 8.43433 12.6753 8.88799 13.9882 9.6644L15.0063 7.94291C13.3502 6.96356 11.2734 6.45633 9.28043 6.29458C7.28492 6.13263 5.27539 6.30909 3.71765 6.78028L4.2967 8.69462ZM13.9152 9.61678C13.8636 9.57984 13.8277 9.52482 13.8148 9.46267L15.7731 9.05607C15.6838 8.62632 15.4361 8.24596 15.0793 7.99053L13.9152 9.61678ZM13.8148 9.46248C13.8019 9.40024 13.8129 9.33548 13.8455 9.28107L15.5606 10.3099C15.7864 9.93356 15.8622 9.486 15.7731 9.05625L13.8148 9.46248ZM13.8456 9.28096C13.8783 9.22644 13.9303 9.18625 13.9913 9.16835L14.5542 11.0875C14.9754 10.964 15.3346 10.6864 15.5605 10.31L13.8456 9.28096ZM13.9912 9.1684C14.0522 9.15049 14.1177 9.15621 14.1748 9.18445L13.2873 10.9768C13.6807 11.1716 14.1331 11.2111 14.5544 11.0875L13.9912 9.1684ZM12.731 10.0806V10.0934H14.731V10.0806H12.731Z" fill="black" mask="url(#path-1-outside-1_301_394)"/>
<path d="M29.382 16.168C28.6073 16.168 27.856 16.0653 27.128 15.86C26.4093 15.6453 25.8307 15.37 25.392 15.034L26.162 13.326C26.582 13.634 27.0813 13.8813 27.66 14.068C28.2387 14.2547 28.8173 14.348 29.396 14.348C30.04 14.348 30.516 14.2547 30.824 14.068C31.132 13.872 31.286 13.6153 31.286 13.298C31.286 13.0647 31.1927 12.8733 31.006 12.724C30.8287 12.5653 30.5953 12.4393 30.306 12.346C30.026 12.2527 29.6433 12.15 29.158 12.038C28.4113 11.8607 27.8 11.6833 27.324 11.506C26.848 11.3287 26.4373 11.044 26.092 10.652C25.756 10.26 25.588 9.73733 25.588 9.084C25.588 8.51467 25.742 8.00133 26.05 7.544C26.358 7.07733 26.82 6.70867 27.436 6.438C28.0613 6.16733 28.822 6.032 29.718 6.032C30.3433 6.032 30.9547 6.10667 31.552 6.256C32.1493 6.40533 32.672 6.62 33.12 6.9L32.42 8.622C31.5147 8.10867 30.6093 7.852 29.704 7.852C29.0693 7.852 28.598 7.95467 28.29 8.16C27.9913 8.36533 27.842 8.636 27.842 8.972C27.842 9.308 28.0147 9.56 28.36 9.728C28.7147 9.88667 29.2513 10.0453 29.97 10.204C30.7167 10.3813 31.328 10.5587 31.804 10.736C32.28 10.9133 32.686 11.1933 33.022 11.576C33.3673 11.9587 33.54 12.4767 33.54 13.13C33.54 13.69 33.3813 14.2033 33.064 14.67C32.756 15.1273 32.2893 15.4913 31.664 15.762C31.0387 16.0327 30.278 16.168 29.382 16.168ZM38.5197 16.112C37.7264 16.112 37.0124 15.9487 36.3777 15.622C35.7524 15.286 35.2624 14.824 34.9077 14.236C34.5531 13.648 34.3757 12.9807 34.3757 12.234C34.3757 11.4873 34.5531 10.82 34.9077 10.232C35.2624 9.644 35.7524 9.18667 36.3777 8.86C37.0124 8.524 37.7264 8.356 38.5197 8.356C39.3131 8.356 40.0224 8.524 40.6477 8.86C41.2731 9.18667 41.7631 9.644 42.1177 10.232C42.4724 10.82 42.6497 11.4873 42.6497 12.234C42.6497 12.9807 42.4724 13.648 42.1177 14.236C41.7631 14.824 41.2731 15.286 40.6477 15.622C40.0224 15.9487 39.3131 16.112 38.5197 16.112ZM38.5197 14.32C39.0797 14.32 39.5371 14.1333 39.8917 13.76C40.2557 13.3773 40.4377 12.8687 40.4377 12.234C40.4377 11.5993 40.2557 11.0953 39.8917 10.722C39.5371 10.3393 39.0797 10.148 38.5197 10.148C37.9597 10.148 37.4977 10.3393 37.1337 10.722C36.7697 11.0953 36.5877 11.5993 36.5877 12.234C36.5877 12.8687 36.7697 13.3773 37.1337 13.76C37.4977 14.1333 37.9597 14.32 38.5197 14.32ZM47.7496 16.112C46.9469 16.112 46.2236 15.9487 45.5796 15.622C44.9449 15.286 44.4456 14.824 44.0816 14.236C43.7269 13.648 43.5496 12.9807 43.5496 12.234C43.5496 11.4873 43.7269 10.82 44.0816 10.232C44.4456 9.644 44.9449 9.18667 45.5796 8.86C46.2236 8.524 46.9469 8.356 47.7496 8.356C48.5429 8.356 49.2336 8.524 49.8216 8.86C50.4189 9.18667 50.8529 9.658 51.1236 10.274L49.4296 11.184C49.0376 10.4933 48.4729 10.148 47.7356 10.148C47.1662 10.148 46.6949 10.3347 46.3216 10.708C45.9482 11.0813 45.7616 11.59 45.7616 12.234C45.7616 12.878 45.9482 13.3867 46.3216 13.76C46.6949 14.1333 47.1662 14.32 47.7356 14.32C48.4822 14.32 49.0469 13.9747 49.4296 13.284L51.1236 14.208C50.8529 14.8053 50.4189 15.272 49.8216 15.608C49.2336 15.944 48.5429 16.112 47.7496 16.112ZM52.381 8.468H54.565V16H52.381V8.468ZM53.473 7.418C53.0717 7.418 52.745 7.30133 52.493 7.068C52.241 6.83467 52.115 6.54533 52.115 6.2C52.115 5.85467 52.241 5.56533 52.493 5.332C52.745 5.09867 53.0717 4.982 53.473 4.982C53.8744 4.982 54.201 5.094 54.453 5.318C54.705 5.542 54.831 5.822 54.831 6.158C54.831 6.522 54.705 6.82533 54.453 7.068C54.201 7.30133 53.8744 7.418 53.473 7.418ZM64.236 8.468V16H62.15V15.132C61.6087 15.7853 60.8247 16.112 59.798 16.112C59.0887 16.112 58.4447 15.9533 57.866 15.636C57.2967 15.3187 56.8487 14.866 56.522 14.278C56.1953 13.69 56.032 13.0087 56.032 12.234C56.032 11.4593 56.1953 10.778 56.522 10.19C56.8487 9.602 57.2967 9.14933 57.866 8.832C58.4447 8.51467 59.0887 8.356 59.798 8.356C60.7593 8.356 61.5107 8.65933 62.052 9.266V8.468H64.236ZM60.176 14.32C60.7267 14.32 61.184 14.1333 61.548 13.76C61.912 13.3773 62.094 12.8687 62.094 12.234C62.094 11.5993 61.912 11.0953 61.548 10.722C61.184 10.3393 60.7267 10.148 60.176 10.148C59.616 10.148 59.154 10.3393 58.79 10.722C58.426 11.0953 58.244 11.5993 58.244 12.234C58.244 12.8687 58.426 13.3773 58.79 13.76C59.154 14.1333 59.616 14.32 60.176 14.32ZM68.96 16.112C68.1107 16.112 67.448 15.888 66.972 15.44C66.496 14.9827 66.258 14.3387 66.258 13.508V5.612H68.442V13.382C68.442 13.6993 68.5213 13.9467 68.68 14.124C68.848 14.292 69.0813 14.376 69.38 14.376C69.492 14.376 69.604 14.362 69.716 14.334C69.8373 14.306 69.9307 14.2733 69.996 14.236L70.094 15.93C69.73 16.0513 69.352 16.112 68.96 16.112ZM79.975 16.168C78.9764 16.168 78.071 15.9533 77.259 15.524C76.4564 15.0853 75.8217 14.4833 75.355 13.718C74.8977 12.9433 74.669 12.0707 74.669 11.1C74.669 10.1293 74.8977 9.26133 75.355 8.496C75.8217 7.72133 76.4564 7.11933 77.259 6.69C78.071 6.25133 78.981 6.032 79.989 6.032C80.8384 6.032 81.6037 6.18133 82.285 6.48C82.9757 6.77867 83.5544 7.208 84.021 7.768L82.565 9.112C81.9024 8.34667 81.081 7.964 80.101 7.964C79.4944 7.964 78.953 8.09933 78.477 8.37C78.001 8.63133 77.6277 9 77.357 9.476C77.0957 9.952 76.965 10.4933 76.965 11.1C76.965 11.7067 77.0957 12.248 77.357 12.724C77.6277 13.2 78.001 13.5733 78.477 13.844C78.953 14.1053 79.4944 14.236 80.101 14.236C81.081 14.236 81.9024 13.8487 82.565 13.074L84.021 14.418C83.5544 14.9873 82.9757 15.4213 82.285 15.72C81.5944 16.0187 80.8244 16.168 79.975 16.168ZM88.7229 16.112C87.9295 16.112 87.2155 15.9487 86.5809 15.622C85.9555 15.286 85.4655 14.824 85.1109 14.236C84.7562 13.648 84.5789 12.9807 84.5789 12.234C84.5789 11.4873 84.7562 10.82 85.1109 10.232C85.4655 9.644 85.9555 9.18667 86.5809 8.86C87.2155 8.524 87.9295 8.356 88.7229 8.356C89.5162 8.356 90.2255 8.524 90.8509 8.86C91.4762 9.18667 91.9662 9.644 92.3209 10.232C92.6755 10.82 92.8529 11.4873 92.8529 12.234C92.8529 12.9807 92.6755 13.648 92.3209 14.236C91.9662 14.824 91.4762 15.286 90.8509 15.622C90.2255 15.9487 89.5162 16.112 88.7229 16.112ZM88.7229 14.32C89.2829 14.32 89.7402 14.1333 90.0949 13.76C90.4589 13.3773 90.6409 12.8687 90.6409 12.234C90.6409 11.5993 90.4589 11.0953 90.0949 10.722C89.7402 10.3393 89.2829 10.148 88.7229 10.148C88.1629 10.148 87.7009 10.3393 87.3369 10.722C86.9729 11.0953 86.7909 11.5993 86.7909 12.234C86.7909 12.8687 86.9729 13.3773 87.3369 13.76C87.7009 14.1333 88.1629 14.32 88.7229 14.32ZM103.959 8.356C104.901 8.356 105.648 8.636 106.199 9.196C106.759 9.74667 107.039 10.5773 107.039 11.688V16H104.855V12.024C104.855 11.4267 104.729 10.9833 104.477 10.694C104.234 10.3953 103.884 10.246 103.427 10.246C102.913 10.246 102.507 10.414 102.209 10.75C101.91 11.0767 101.761 11.5667 101.761 12.22V16H99.5767V12.024C99.5767 10.8387 99.1007 10.246 98.1487 10.246C97.6447 10.246 97.2434 10.414 96.9447 10.75C96.646 11.0767 96.4967 11.5667 96.4967 12.22V16H94.3127V8.468H96.3987V9.336C96.6787 9.01867 97.0194 8.776 97.4207 8.608C97.8314 8.44 98.2794 8.356 98.7647 8.356C99.2967 8.356 99.7774 8.46333 100.207 8.678C100.636 8.88333 100.981 9.18667 101.243 9.588C101.551 9.196 101.938 8.89267 102.405 8.678C102.881 8.46333 103.399 8.356 103.959 8.356ZM118.642 8.356C119.585 8.356 120.332 8.636 120.882 9.196C121.442 9.74667 121.722 10.5773 121.722 11.688V16H119.538V12.024C119.538 11.4267 119.412 10.9833 119.16 10.694C118.918 10.3953 118.568 10.246 118.11 10.246C117.597 10.246 117.191 10.414 116.892 10.75C116.594 11.0767 116.444 11.5667 116.444 12.22V16H114.26V12.024C114.26 10.8387 113.784 10.246 112.832 10.246C112.328 10.246 111.927 10.414 111.628 10.75C111.33 11.0767 111.18 11.5667 111.18 12.22V16H108.996V8.468H111.082V9.336C111.362 9.01867 111.703 8.776 112.104 8.608C112.515 8.44 112.963 8.356 113.448 8.356C113.98 8.356 114.461 8.46333 114.89 8.678C115.32 8.88333 115.665 9.18667 115.926 9.588C116.234 9.196 116.622 8.89267 117.088 8.678C117.564 8.46333 118.082 8.356 118.642 8.356ZM131.268 8.468V16H129.196V15.104C128.907 15.4307 128.561 15.6827 128.16 15.86C127.759 16.028 127.325 16.112 126.858 16.112C125.869 16.112 125.085 15.8273 124.506 15.258C123.927 14.6887 123.638 13.844 123.638 12.724V8.468H125.822V12.402C125.822 13.6153 126.331 14.222 127.348 14.222C127.871 14.222 128.291 14.054 128.608 13.718C128.925 13.3727 129.084 12.864 129.084 12.192V8.468H131.268ZM137.869 8.356C138.803 8.356 139.554 8.636 140.123 9.196C140.702 9.756 140.991 10.5867 140.991 11.688V16H138.807V12.024C138.807 11.4267 138.677 10.9833 138.415 10.694C138.154 10.3953 137.776 10.246 137.281 10.246C136.731 10.246 136.292 10.4187 135.965 10.764C135.639 11.1 135.475 11.604 135.475 12.276V16H133.291V8.468H135.377V9.35C135.667 9.03267 136.026 8.79 136.455 8.622C136.885 8.44467 137.356 8.356 137.869 8.356ZM142.971 8.468H145.155V16H142.971V8.468ZM144.063 7.418C143.662 7.418 143.335 7.30133 143.083 7.068C142.831 6.83467 142.705 6.54533 142.705 6.2C142.705 5.85467 142.831 5.56533 143.083 5.332C143.335 5.09867 143.662 4.982 144.063 4.982C144.464 4.982 144.791 5.094 145.043 5.318C145.295 5.542 145.421 5.822 145.421 6.158C145.421 6.522 145.295 6.82533 145.043 7.068C144.791 7.30133 144.464 7.418 144.063 7.418ZM151.718 15.636C151.503 15.7947 151.237 15.916 150.92 16C150.612 16.0747 150.29 16.112 149.954 16.112C149.048 16.112 148.353 15.8833 147.868 15.426C147.382 14.9687 147.14 14.2967 147.14 13.41V6.802H149.324V8.636H151.186V10.316H149.324V13.382C149.324 13.6993 149.403 13.9467 149.562 14.124C149.72 14.292 149.949 14.376 150.248 14.376C150.584 14.376 150.882 14.2827 151.144 14.096L151.718 15.636ZM160.539 8.468V14.74C160.539 16.1213 160.189 17.148 159.489 17.82C158.789 18.492 157.772 18.828 156.437 18.828C155.728 18.828 155.056 18.7393 154.421 18.562C153.796 18.3847 153.269 18.128 152.839 17.792L153.707 16.224C154.025 16.4853 154.412 16.6907 154.869 16.84C155.327 16.9893 155.789 17.064 156.255 17.064C156.983 17.064 157.515 16.896 157.851 16.56C158.187 16.224 158.355 15.7107 158.355 15.02V14.768C158.075 15.048 157.744 15.2627 157.361 15.412C156.979 15.5613 156.568 15.636 156.129 15.636C155.14 15.636 154.356 15.356 153.777 14.796C153.199 14.2267 152.909 13.3773 152.909 12.248V8.468H155.093V11.926C155.093 13.1487 155.602 13.76 156.619 13.76C157.142 13.76 157.562 13.592 157.879 13.256C158.197 12.9107 158.355 12.402 158.355 11.73V8.468H160.539ZM177.868 6.032C179.025 6.032 179.926 6.37267 180.57 7.054C181.214 7.726 181.536 8.70133 181.536 9.98V16H179.268V10.05C179.268 9.35933 179.086 8.84133 178.722 8.496C178.367 8.14133 177.896 7.964 177.308 7.964C176.664 7.964 176.15 8.15067 175.768 8.524C175.385 8.888 175.194 9.44333 175.194 10.19V16H172.926V10.05C172.926 9.35933 172.758 8.84133 172.422 8.496C172.086 8.14133 171.628 7.964 171.05 7.964C170.415 7.964 169.906 8.15067 169.524 8.524C169.141 8.888 168.95 9.44333 168.95 10.19V16H166.682V6.2H168.88V7.404C169.178 6.96533 169.575 6.62933 170.07 6.396C170.564 6.15333 171.134 6.032 171.778 6.032C172.45 6.032 173.038 6.158 173.542 6.41C174.046 6.65267 174.433 7.00733 174.704 7.474C175.04 7.00733 175.478 6.65267 176.02 6.41C176.57 6.158 177.186 6.032 177.868 6.032ZM191.261 8.468V16H189.175V15.132C188.634 15.7853 187.85 16.112 186.823 16.112C186.114 16.112 185.47 15.9533 184.891 15.636C184.322 15.3187 183.874 14.866 183.547 14.278C183.221 13.69 183.057 13.0087 183.057 12.234C183.057 11.4593 183.221 10.778 183.547 10.19C183.874 9.602 184.322 9.14933 184.891 8.832C185.47 8.51467 186.114 8.356 186.823 8.356C187.785 8.356 188.536 8.65933 189.077 9.266V8.468H191.261ZM187.201 14.32C187.752 14.32 188.209 14.1333 188.573 13.76C188.937 13.3773 189.119 12.8687 189.119 12.234C189.119 11.5993 188.937 11.0953 188.573 10.722C188.209 10.3393 187.752 10.148 187.201 10.148C186.641 10.148 186.179 10.3393 185.815 10.722C185.451 11.0953 185.269 11.5993 185.269 12.234C185.269 12.8687 185.451 13.3773 185.815 13.76C186.179 14.1333 186.641 14.32 187.201 14.32ZM197.861 8.356C198.795 8.356 199.546 8.636 200.115 9.196C200.694 9.756 200.983 10.5867 200.983 11.688V16H198.799V12.024C198.799 11.4267 198.669 10.9833 198.407 10.694C198.146 10.3953 197.768 10.246 197.273 10.246C196.723 10.246 196.284 10.4187 195.957 10.764C195.631 11.1 195.467 11.604 195.467 12.276V16H193.283V8.468H195.369V9.35C195.659 9.03267 196.018 8.79 196.447 8.622C196.877 8.44467 197.348 8.356 197.861 8.356ZM210.689 8.468V16H208.603V15.132C208.062 15.7853 207.278 16.112 206.251 16.112C205.542 16.112 204.898 15.9533 204.319 15.636C203.75 15.3187 203.302 14.866 202.975 14.278C202.648 13.69 202.485 13.0087 202.485 12.234C202.485 11.4593 202.648 10.778 202.975 10.19C203.302 9.602 203.75 9.14933 204.319 8.832C204.898 8.51467 205.542 8.356 206.251 8.356C207.212 8.356 207.964 8.65933 208.505 9.266V8.468H210.689ZM206.629 14.32C207.18 14.32 207.637 14.1333 208.001 13.76C208.365 13.3773 208.547 12.8687 208.547 12.234C208.547 11.5993 208.365 11.0953 208.001 10.722C207.637 10.3393 207.18 10.148 206.629 10.148C206.069 10.148 205.607 10.3393 205.243 10.722C204.879 11.0953 204.697 11.5993 204.697 12.234C204.697 12.8687 204.879 13.3773 205.243 13.76C205.607 14.1333 206.069 14.32 206.629 14.32ZM220.481 8.468V14.74C220.481 16.1213 220.122 17.148 219.403 17.82C218.684 18.492 217.634 18.828 216.253 18.828C215.525 18.828 214.834 18.7393 214.181 18.562C213.528 18.3847 212.986 18.128 212.557 17.792L213.425 16.224C213.742 16.4853 214.144 16.6907 214.629 16.84C215.114 16.9987 215.6 17.078 216.085 17.078C216.841 17.078 217.396 16.9053 217.751 16.56C218.115 16.224 218.297 15.7107 218.297 15.02V14.698C217.728 15.3233 216.934 15.636 215.917 15.636C215.226 15.636 214.592 15.4867 214.013 15.188C213.444 14.88 212.991 14.4507 212.655 13.9C212.319 13.3493 212.151 12.7147 212.151 11.996C212.151 11.2773 212.319 10.6427 212.655 10.092C212.991 9.54133 213.444 9.11667 214.013 8.818C214.592 8.51 215.226 8.356 215.917 8.356C217.009 8.356 217.84 8.71533 218.409 9.434V8.468H220.481ZM216.351 13.844C216.93 13.844 217.401 13.676 217.765 13.34C218.138 12.9947 218.325 12.5467 218.325 11.996C218.325 11.4453 218.138 11.002 217.765 10.666C217.401 10.3207 216.93 10.148 216.351 10.148C215.772 10.148 215.296 10.3207 214.923 10.666C214.55 11.002 214.363 11.4453 214.363 11.996C214.363 12.5467 214.55 12.9947 214.923 13.34C215.296 13.676 215.772 13.844 216.351 13.844ZM226.308 14.362C226.7 14.362 227.045 14.306 227.344 14.194C227.652 14.0727 227.937 13.886 228.198 13.634L229.36 14.894C228.651 15.706 227.615 16.112 226.252 16.112C225.403 16.112 224.651 15.9487 223.998 15.622C223.345 15.286 222.841 14.824 222.486 14.236C222.131 13.648 221.954 12.9807 221.954 12.234C221.954 11.4967 222.127 10.834 222.472 10.246C222.827 9.64867 223.307 9.18667 223.914 8.86C224.53 8.524 225.221 8.356 225.986 8.356C226.705 8.356 227.358 8.51 227.946 8.818C228.534 9.11667 229.001 9.55533 229.346 10.134C229.701 10.7033 229.878 11.38 229.878 12.164L224.306 13.242C224.465 13.6153 224.712 13.8953 225.048 14.082C225.393 14.2687 225.813 14.362 226.308 14.362ZM225.986 10.008C225.435 10.008 224.987 10.1853 224.642 10.54C224.297 10.8947 224.115 11.3847 224.096 12.01L227.764 11.296C227.661 10.904 227.451 10.5913 227.134 10.358C226.817 10.1247 226.434 10.008 225.986 10.008ZM233.432 9.462C233.693 9.098 234.043 8.82267 234.482 8.636C234.93 8.44933 235.443 8.356 236.022 8.356V10.372C235.779 10.3533 235.616 10.344 235.532 10.344C234.907 10.344 234.417 10.5213 234.062 10.876C233.707 11.2213 233.53 11.744 233.53 12.444V16H231.346V8.468H233.432V9.462Z" fill="black"/>
</svg>
