<svg width="156" height="217" viewBox="0 0 156 217" fill="none" xmlns="http://www.w3.org/2000/svg">
<path d="M71.7139 134.88C71.0073 137.487 70.3086 140.066 69.6049 142.598C69.282 138.798 68.8906 134.849 68.25 130.874L68.2315 130.759L68.2093 130.646C65.8685 118.663 59.2096 108.485 47.3865 101.074C46.5916 100.572 45.7893 100.061 44.9783 99.5441C35.5257 93.5217 24.8869 86.7435 11.0606 84.3825C28.4296 81.3364 41.8251 74.9452 52.2224 65.9277C63.3034 56.3174 70.5332 44.1109 75.7123 30.9357L75.7193 30.9179L75.7262 30.9001C76.9039 27.8553 77.8332 24.6051 78.6306 21.4225C78.5273 23.0746 78.4239 24.7377 78.3204 26.4221L78.3193 26.4407L78.3183 26.4593C78.2027 28.521 78.0396 30.7123 77.8711 32.9759C77.5148 37.763 77.1344 42.8734 77.1286 47.7656C76.6408 64.2178 90.3551 72.8857 102.422 77.5653L102.481 77.5879L102.539 77.6095C104.469 78.3186 106.457 78.9575 108.502 79.5071C107.327 79.812 106.166 80.1293 105.018 80.4531L104.93 80.4778L104.844 80.5047C100.091 81.9791 94.7393 85.021 91.5771 89.2767C91.4998 89.3693 91.4221 89.4624 91.344 89.5559C87.3013 94.3975 82.2647 100.429 79.8704 107.453C76.7052 116.46 74.1626 125.843 71.7139 134.88ZM82.5598 6.69864C82.5598 6.69875 82.5558 6.7011 82.5478 6.70531C82.5557 6.70063 82.5597 6.69853 82.5598 6.69864ZM79.5841 5.6959C79.5841 5.6959 79.5842 5.69905 79.5843 5.70555C79.5841 5.69919 79.584 5.69591 79.5841 5.6959Z" stroke="#81ADC8" stroke-width="14"/>
<path d="M125.255 175.886C124.402 178.313 123.66 180.833 122.97 183.315C121.755 179.07 119.095 175.45 114.807 172.761C114.501 172.568 114.19 172.369 113.874 172.168C111.452 170.623 108.716 168.878 105.484 167.615C109.99 166.227 113.724 164.143 116.816 161.46C119.974 158.722 122.335 155.471 124.165 151.966C124.147 152.482 124.136 152.996 124.135 153.501C123.948 160.119 129.035 163.717 133.48 165.661C132.151 166.358 130.862 167.326 129.939 168.555C129.903 168.598 129.867 168.641 129.83 168.685C128.317 170.496 126.252 172.966 125.255 175.886ZM99.6906 165.708C99.6907 165.708 99.6934 165.712 99.6982 165.72C99.6928 165.712 99.6904 165.708 99.6906 165.708Z" stroke="#CD4631" stroke-width="8"/>
<path d="M31.2113 194.522C32.6965 193.234 33.9015 191.77 34.8956 190.202C35.2288 193.55 37.6954 195.571 40.0514 196.776C39.4948 197.162 38.9772 197.63 38.5622 198.179C38.5384 198.208 38.5143 198.237 38.4899 198.266C37.5646 199.372 36.2315 200.967 35.5822 202.866C35.2313 203.865 34.9094 204.893 34.607 205.922C33.676 203.843 32.1252 202.053 29.9047 200.661C29.7151 200.541 29.5216 200.418 29.324 200.291C28.1515 199.543 26.8328 198.701 25.3235 197.985C27.6005 197.129 29.5486 195.964 31.2113 194.522Z" stroke="black" stroke-width="6"/>
</svg>
